<svg xmlns="http://www.w3.org/2000/svg" viewBox="0 0 156.66 156.8"><defs><style>.cls-1{fill:#cfb353;}</style></defs><title>Asset 1</title><g id="Layer_2" data-name="Layer 2"><g id="Layer_1-2" data-name="Layer 1"><path class="cls-1" d="M156.66,78.51c-.26.25-.52.49-.77.75s-.55.6-.84.89Q149.67,85.58,144.27,91c-1.69,1.84-3.49,3.58-5.25,5.35-1.55,1.58-3.11,3.14-4.67,4.71-.69.69-.64.6-.64,1.58v29.7c0,.27,0,.53,0,.79a.92.92,0,0,1,0,.29.38.38,0,0,1-.24.25,1.35,1.35,0,0,1-.28,0H102.06a.87.87,0,0,0-.64.27l-.46.45c-2.82,2.8-5.62,5.61-8.45,8.38-1.23,1.21-2.48,2.41-3.71,3.63l-8.69,8.64c-.27.27-.57.52-.84.79s-.61.61-.91.92h-.14a2.48,2.48,0,0,0-.57-.64c-1.56-1.57-3.13-3.12-4.7-4.68-.89-.88-1.75-1.79-2.66-2.64-2.19-2.06-4.28-4.21-6.42-6.32-1.87-1.84-3.71-3.71-5.58-5.54-1-1-2-1.92-3-2.91a1.05,1.05,0,0,0-.83-.36H24.18c-.29,0-.57,0-.86,0a.35.35,0,0,1-.29-.28,1.43,1.43,0,0,1,0-.29c0-.26,0-.53,0-.79V102.91c0-.29,0-.58,0-.87a.73.73,0,0,0-.19-.46l-.2-.21-.35-.36c-4.45-4.59-9-9.09-13.48-13.63C6.07,84.52,3.25,81.81.51,79c-.15-.16-.3-.31-.44-.48a.29.29,0,0,1,0-.39c.1-.11.19-.22.3-.32l.91-.92C5.61,72.42,10,68.05,14.42,63.62c2.6-2.77,5.33-5.4,8-8.11.59-.6.58-.55.58-1.39V24.28c0-.32,0-.63,0-.94a.35.35,0,0,1,.33-.32l.36,0H54.5a.91.91,0,0,0,.71-.29l.46-.45c2.18-2.17,4.35-4.36,6.55-6.5,1.22-1.19,2.45-2.38,3.66-3.58,2.83-2.81,5.65-5.64,8.49-8.43,1.19-1.16,2.39-2.31,3.56-3.47A2,2,0,0,1,78.21,0a.26.26,0,0,1,.27,0l.23.17c.16.15.31.31.46.46,2.17,2.15,4.3,4.33,6.5,6.45,2.78,2.66,5.47,5.41,8.21,8.1,1,.94,1.91,1.9,2.86,2.84,1.52,1.51,3.09,3,4.59,4.49a3.07,3.07,0,0,0,.26.25.78.78,0,0,0,.46.18h31.07a1.36,1.36,0,0,1,.29,0,.33.33,0,0,1,.25.23,1.35,1.35,0,0,1,0,.29c0,.26,0,.52,0,.79V53.75c0,.29,0,.58,0,.87a.83.83,0,0,0,.21.52l.4.42L136,57.19c4.18,4.35,8.48,8.58,12.72,12.87,2.38,2.55,4.89,5,7.33,7.45a2.5,2.5,0,0,0,.65.56ZM40.41,24.88h-15a1.4,1.4,0,0,0-.28.06.25.25,0,0,0-.19.19.92.92,0,0,0-.05.28c0,.27,0,.53,0,.79V54.61c0,.28,0,.57,0,.86a.65.65,0,0,1-.18.46c-.16.18-.33.35-.5.52L15.8,64.89c-1,1-2,2-3,3-3.14,3.19-6.3,6.35-9.45,9.52l-.5.51c-.24.27-.24.43,0,.69l.15.16c1.53,1.56,3.11,3.08,4.59,4.69q5.16,5.19,10.31,10.38c.61.61,1.19,1.25,1.8,1.87,1.5,1.52,3,3,4.52,4.55a3.07,3.07,0,0,0,.25.26,1.09,1.09,0,0,1,.39,1c0,.24,0,.48,0,.72v28.91a2.7,2.7,0,0,0,0,.28.34.34,0,0,0,.3.27c.31,0,.62,0,.94,0H54.34c.22,0,.43,0,.65,0,.68,0,.68,0,1.15.46l.87.86c1.82,1.81,3.65,3.62,5.49,5.41,2.91,2.84,5.78,5.71,8.65,8.59,1.44,1.44,2.94,2.83,4.38,4.27l2.25,2.24.43.38a.28.28,0,0,0,.28,0l.53-.48,6.14-6.1c1-1,2.06-2,3.09-3,3.48-3.42,6.92-6.87,10.39-10.31.68-.68,1.38-1.33,2.08-2a.12.12,0,0,1,0-.05.79.79,0,0,1,.58-.25h29.77a2.25,2.25,0,0,0,.36-.06.26.26,0,0,0,.19-.19.92.92,0,0,0,.05-.28c0-.29,0-.58,0-.87V102.22c0-.29,0-.58,0-.86a.87.87,0,0,1,.24-.59c.5-.52,1-1,1.49-1.57,4-4.11,8.15-8.15,12.16-12.3,2.56-2.64,5.18-5.22,7.77-7.83.14-.13.27-.27.41-.41l.13-.17a.29.29,0,0,0,0-.27.5.5,0,0,0-.08-.12,2.09,2.09,0,0,0-.2-.22l-3.88-4c-3.36-3.43-6.77-6.82-10.15-10.23-.65-.65-1.26-1.33-1.9-2l-5.28-5.32c-.14-.13-.27-.28-.41-.41a.94.94,0,0,1-.31-.77V26.37c0-.24,0-.48,0-.72s0-.24,0-.36a.41.41,0,0,0-.43-.4h-29.7a1.08,1.08,0,0,1-1.08-.44l-.31-.3-1.43-1.43Q96.06,20,93.32,17.36c-2.9-2.84-5.76-5.72-8.65-8.58Q82,6.17,79.37,3.58L78.76,3l-.28-.22a.3.3,0,0,0-.34,0c-.18.16-.37.31-.54.48L72.13,8.67c-1.85,1.82-3.65,3.69-5.55,5.45-.57.52-1.1,1.08-1.64,1.62l-8.49,8.44c-.17.17-.34.34-.52.5a.7.7,0,0,1-.46.18l-.79,0Z"/><path class="cls-1" d="M131.71,78.29v2.09a10.94,10.94,0,0,1-.1,1.51c0,.19,0,.38,0,.57l-.09,1.08a2.2,2.2,0,0,0,0,.36,14,14,0,0,1-.2,1.71,51.93,51.93,0,0,1-1.16,5.94,53.71,53.71,0,0,1-2.22,6.78c-.48,1.18-1,2.34-1.55,3.49s-1,2-1.6,3c-.78,1.41-1.67,2.75-2.58,4.08a43.57,43.57,0,0,1-3.13,4c-.54.62-1.07,1.24-1.61,1.85-.26.28-.53.55-.8.83-1.14,1.17-2.35,2.27-3.58,3.34-.9.77-1.82,1.49-2.76,2.21-1.09.82-2.24,1.58-3.39,2.32a50.22,50.22,0,0,1-4.51,2.56,54.62,54.62,0,0,1-12.18,4.37c-1.32.31-2.64.56-4,.74-1,.14-2,.26-3.07.39-.19,0-.39,0-.58,0l-1.15.09c-.21,0-.43,0-.65,0h-5l-2.58-.22c-.12,0-.24,0-.36,0a15.31,15.31,0,0,1-1.79-.2,50.35,50.35,0,0,1-5.45-1c-.93-.23-1.86-.49-2.78-.77a53.25,53.25,0,0,1-6.21-2.31c-1.1-.49-2.18-1-3.24-1.57a56.61,56.61,0,0,1-6.07-3.75c-1.21-.87-2.38-1.8-3.53-2.74-.61-.51-1.19-1-1.77-1.59s-1.13-1.11-1.7-1.67a50.65,50.65,0,0,1-4.88-5.67c-.94-1.28-1.83-2.59-2.66-3.95-.58-1-1.16-1.93-1.66-3-.64-1.26-1.29-2.52-1.84-3.83a54,54,0,0,1-2.11-5.83A52.35,52.35,0,0,1,25.82,88c-.22-1.2-.43-2.41-.54-3.63-.06-.7-.16-1.39-.22-2.08,0-.43,0-.87,0-1.3s0-1-.09-1.58a14.55,14.55,0,0,1,0-2.38c0-.43.07-.86.07-1.29a16.77,16.77,0,0,1,.12-1.87c.07-.55.09-1.1.15-1.65.17-1.41.38-2.81.65-4.2a54.41,54.41,0,0,1,1.68-6.41,49.25,49.25,0,0,1,2.06-5.3c.39-.83.77-1.66,1.19-2.47.75-1.45,1.56-2.87,2.45-4.25.7-1.09,1.43-2.16,2.2-3.2.47-.64,1-1.26,1.47-1.88l.79-.93A45.33,45.33,0,0,1,41.1,40c.71-.68,1.45-1.32,2.19-2l1-.89a47.64,47.64,0,0,1,4-3c.91-.62,1.85-1.2,2.8-1.77A48.56,48.56,0,0,1,55.55,30c1.33-.63,2.68-1.18,4.05-1.71a52.09,52.09,0,0,1,6.2-1.89,50.17,50.17,0,0,1,5.31-1l1.71-.22a5.65,5.65,0,0,1,.58,0,4,4,0,0,0,.5,0A13,13,0,0,1,75.77,25c.43,0,.86,0,1.3-.07a14.2,14.2,0,0,1,2.44,0c.43,0,.87.07,1.3.07a18.15,18.15,0,0,1,2.08.13c.53.06,1.06.07,1.58.15.83.13,1.67.21,2.5.35,1.63.26,3.26.6,4.86,1a56.62,56.62,0,0,1,6.7,2.24q1.36.57,2.7,1.2a53,53,0,0,1,4.7,2.51,51.53,51.53,0,0,1,5.73,4c.8.65,1.58,1.33,2.37,2,.17.14.32.29.48.44.85.85,1.71,1.69,2.55,2.55A46,46,0,0,1,121.58,47a52.64,52.64,0,0,1,2.91,4.47A53.34,53.34,0,0,1,127,56.4c.41.92.81,1.85,1.16,2.79.62,1.65,1.17,3.31,1.65,5s.79,3.22,1.08,4.85c.23,1.23.39,2.47.53,3.71.09.81.09,1.63.22,2.44a4.64,4.64,0,0,1,0,.65l0,2.45Zm-2.15,0c0-1.39,0-2.79-.12-4.18-.1-.9-.18-1.81-.3-2.72A48.66,48.66,0,0,0,128,65.7a49.52,49.52,0,0,0-1.71-5.43,50.1,50.1,0,0,0-2.3-5.2c-.3-.58-.61-1.14-.92-1.72-.53-1-1.12-2-1.74-2.9a50.24,50.24,0,0,0-3.17-4.38,38.64,38.64,0,0,0-2.62-3L113.44,41a36.85,36.85,0,0,0-3-2.61,53.09,53.09,0,0,0-6.73-4.57q-2.24-1.26-4.57-2.31a49.41,49.41,0,0,0-5.66-2.13A53.82,53.82,0,0,0,85,27.48c-.4-.05-.81-.12-1.22-.15a26,26,0,0,0-2.65-.18l-.36,0c-.39,0-.77-.06-1.15-.07s-1,0-1.52,0a14.47,14.47,0,0,0-2.37.1h-.29c-.62,0-1.24.06-1.87.13-.86.09-1.71.19-2.57.3-1.41.19-2.8.46-4.18.78a51,51,0,0,0-6.62,2c-1.41.54-2.8,1.15-4.17,1.79-1.15.55-2.26,1.17-3.37,1.8a53,53,0,0,0-5.28,3.5,49.56,49.56,0,0,0-4.29,3.63,41.35,41.35,0,0,0-3.49,3.64c-1,1.19-2,2.41-2.9,3.68a55.54,55.54,0,0,0-4,6.51c-.41.79-.79,1.6-1.15,2.41C31,58.65,30.41,60,29.92,61.4a52.9,52.9,0,0,0-2.49,10.72c-.06.52-.09,1-.16,1.57s-.09,1-.11,1.51-.05.72-.07,1.08a5.79,5.79,0,0,0,0,.72,28.52,28.52,0,0,0,.09,3.81c0,.82.06,1.63.16,2.45.08.59.11,1.19.19,1.79.21,1.47.46,2.94.78,4.39a54.88,54.88,0,0,0,1.95,6.64q.26.7.54,1.41c.65,1.58,1.38,3.12,2.16,4.64s1.49,2.69,2.32,4a50.68,50.68,0,0,0,3.25,4.49,37.52,37.52,0,0,0,2.57,2.92l2.19,2.19c.61.62,1.27,1.17,1.93,1.73q1.68,1.42,3.47,2.7a52.86,52.86,0,0,0,6.15,3.75c.83.43,1.68.83,2.54,1.21a52.1,52.1,0,0,0,6.82,2.51c.74.21,1.49.41,2.23.59,1.17.27,2.35.52,3.54.71.76.12,1.51.25,2.28.33a20.6,20.6,0,0,0,2.08.19l.28,0c.31,0,.63.07.94.07,1.85.05,3.7.05,5.55,0,.21,0,.43,0,.64,0,.77-.08,1.53-.17,2.3-.23,1-.09,2-.25,3-.42.78-.13,1.56-.29,2.34-.46,1.43-.3,2.85-.68,4.25-1.12a48.7,48.7,0,0,0,4.86-1.79c1-.43,1.94-.85,2.89-1.32s1.82-1,2.72-1.49a49.77,49.77,0,0,0,5.28-3.5c.76-.59,1.5-1.2,2.24-1.81s1.43-1.21,2.1-1.87c1-1,2-2,2.94-3.06.45-.54.92-1,1.37-1.59.74-.91,1.46-1.84,2.14-2.8.85-1.2,1.66-2.42,2.39-3.69s1.58-2.81,2.25-4.27,1.25-2.81,1.77-4.26a49.86,49.86,0,0,0,2.21-8.13,42.61,42.61,0,0,0,.69-5.28,1.64,1.64,0,0,1,0-.22,10.09,10.09,0,0,0,.11-1.65Z"/><path class="cls-1" d="M78.37,23.53h-1a.89.89,0,0,1-.59-.24l-.21-.19-1.88-1.89a1.18,1.18,0,0,1-.22-.28.23.23,0,0,1,0-.2,4.16,4.16,0,0,1,.32-.39l1.94-1.94c.13-.14.26-.28.38-.43a.3.3,0,0,0,0-.34c-.06-.07-.11-.15-.18-.22l-4.23-4.23L72.45,13a.32.32,0,0,0-.27,0,1.18,1.18,0,0,0-.18.13l-1.32,1.32a1.24,1.24,0,0,0-.17.23.26.26,0,0,0,0,.28,3.75,3.75,0,0,0,.37.44l2,2c.15.15.3.31.46.46l.21.19a.34.34,0,0,0,.46,0l.37-.34a3.11,3.11,0,0,1,.28-.23.24.24,0,0,1,.27,0,3.44,3.44,0,0,1,.66.66.26.26,0,0,1,0,.27s0,.05,0,.06c-.52.53-1,1.06-1.58,1.58a.28.28,0,0,1-.39,0c-.13-.11-.26-.22-.38-.34l-4.33-4.33c-.58-.58-.58-.62,0-1.21l2.91-2.9c.12-.12.25-.22.38-.33a.26.26,0,0,1,.27,0c.13.11.26.21.38.33l1.33,1.32,3.41,3.42.36.35c.35.34.42.34.77,0l2.9-2.91,2.25-2.24c.46-.45.54-.46,1,0L88,14.37a2,2,0,0,1,.23.28.26.26,0,0,1,0,.27,5.3,5.3,0,0,1-.38.43c-.7.7-1.39,1.4-2.09,2.09l-2.24,2.25-.42.39a.3.3,0,0,1-.45,0l-1.48-1.48a.32.32,0,0,1-.08-.12.32.32,0,0,1,0-.34c.13-.15.25-.29.39-.43.33-.33.42-.32.77,0l.49.43a.26.26,0,0,0,.27,0l.23-.17L86,15.14l.14-.16a.32.32,0,0,0,0-.4,1.07,1.07,0,0,0-.14-.16l-1.22-1.23a1.94,1.94,0,0,0-.29-.21.21.21,0,0,0-.27,0,4.93,4.93,0,0,0-.49.42l-3,2.95-1,1a3.11,3.11,0,0,0-.23.28.27.27,0,0,0,0,.33q.19.23.39.42L81.7,20.2l.4.42a.3.3,0,0,1,0,.4,2.91,2.91,0,0,1-.24.27L80,23.12l-.21.2a.73.73,0,0,1-.52.21Zm1.8-2.71a.48.48,0,0,0-.17-.31l-1.42-1.42A.44.44,0,0,0,78.4,19a.34.34,0,0,0-.2,0,.43.43,0,0,0-.17.13L76.6,20.53s-.08.11-.13.17a.32.32,0,0,0,0,.27c0,.06.09.12.14.17L78,22.57a.44.44,0,0,0,.18.12.34.34,0,0,0,.2,0,.48.48,0,0,0,.17-.12L80,21.18a1.28,1.28,0,0,0,.17-.22A.58.58,0,0,0,80.17,20.82Z"/><path class="cls-1" d="M23.54,78.32v.5c0,.79,0,.79-.53,1.34l-.77.76-1,1a1.14,1.14,0,0,1-.28.21.26.26,0,0,1-.21,0,2.31,2.31,0,0,1-.39-.31L18.4,79.91a5.11,5.11,0,0,0-.42-.39.27.27,0,0,0-.34,0,2.89,2.89,0,0,0-.32.29q-2,2-4,4c-.12.12-.23.25-.34.38a.33.33,0,0,0,0,.4l.14.16,1.32,1.33a1.18,1.18,0,0,0,.18.13.26.26,0,0,0,.27,0l.28-.23,2.7-2.7c.08-.09.15-.19.22-.28a.28.28,0,0,0,0-.28,1.74,1.74,0,0,0-.18-.22l-.39-.42a.3.3,0,0,1,0-.45l.24-.27c.45-.44.55-.44,1,0s.75.75,1.12,1.12a1.48,1.48,0,0,1,.22.29.35.35,0,0,1,0,.2.54.54,0,0,1-.11.18l-.3.31L15.4,87.77c-.59.59-.6.61-1.19,0-.93-.94-1.87-1.87-2.8-2.8l-.1-.1c-.5-.51-.5-.57,0-1l.36-.36,4.43-4.43c.15-.16.31-.31.46-.46s.19-.35,0-.56l-.46-.46L11.48,73c-.17-.17-.33-.35-.48-.53a.28.28,0,0,1,0-.28c.08-.09.15-.19.23-.27l3.16-3.17.11-.09c.26-.24.42-.24.68,0l.37.35,4.12,4.13c.16.16.3.32.44.48a.29.29,0,0,1,0,.39l-.14.17-1.28,1.27a1.92,1.92,0,0,1-.22.18.24.24,0,0,1-.27,0,3.18,3.18,0,0,1-.66-.66.24.24,0,0,1,0-.27l.33-.37.28-.33a.3.3,0,0,0,0-.34c-.14-.17-.29-.33-.44-.48l-2.29-2.3-.26-.25L15,70.47a.26.26,0,0,0-.27,0,2,2,0,0,0-.23.18l-1.27,1.27c-.07.07-.13.15-.19.22a.3.3,0,0,0,0,.34c.09.11.18.22.28.32q2,2,4,4a2,2,0,0,0,.26.24.33.33,0,0,0,.46,0l.42-.4L20.15,75l.36-.35c.25-.24.38-.25.61,0l.21.2L23,76.47a1.26,1.26,0,0,1,.53,1.27C23.55,77.94,23.54,78.13,23.54,78.32Zm-2.75-1.88a.64.64,0,0,0-.18.1c-.53.52-1.06,1-1.58,1.57a.28.28,0,0,0,0,.39l.65.67.72.71c.06.07.14.13.21.2a.32.32,0,0,0,.45,0l1.58-1.57a.33.33,0,0,0,.07-.13.22.22,0,0,0,0-.14.67.67,0,0,0-.11-.18l-1.48-1.47a.66.66,0,0,0-.17-.12A.66.66,0,0,0,20.79,76.44Z"/><path class="cls-1" d="M133.17,78.31v-1a.78.78,0,0,1,.21-.52c.07-.07.13-.14.2-.2.61-.62,1.22-1.23,1.84-1.84l.27-.24a.24.24,0,0,1,.27,0c.12.1.25.21.37.33l1.94,1.93a3.75,3.75,0,0,0,.44.37.26.26,0,0,0,.27,0,.81.81,0,0,0,.18-.12l.42-.4L143.19,73l.36-.36c.25-.27.26-.4,0-.67-.47-.48-.95-1-1.43-1.42-.17-.17-.31-.17-.5,0l-.26.25-2.49,2.49c-.12.12-.23.25-.34.38a.24.24,0,0,0,0,.27l.34.37.33.38a.23.23,0,0,1,0,.27.48.48,0,0,1-.09.11l-.46.46c-.2.19-.35.19-.56,0L136.54,74a.27.27,0,0,1,0-.34l.29-.31,4.49-4.49a3.73,3.73,0,0,1,.43-.36.24.24,0,0,1,.28,0,3.75,3.75,0,0,1,.44.37l3,2.95.25.26a.33.33,0,0,1,.07.13.45.45,0,0,1,0,.2.44.44,0,0,1-.12.18c-.15.16-.3.31-.46.46l-4.63,4.64c-.66.65-.68.64,0,1.29l4.68,4.69c.16.15.31.31.45.47s.13.28,0,.44l-.25.26q-1.5,1.51-3,3c-.12.12-.25.22-.38.33a.24.24,0,0,1-.27,0c-.16-.14-.33-.28-.48-.43l-3.11-3.11c-.41-.41-.82-.81-1.22-1.22s-.51-.59,0-1.11L138,81.25a1.37,1.37,0,0,1,.29-.2.26.26,0,0,1,.21,0,2.67,2.67,0,0,1,.72.7.24.24,0,0,1,0,.27c-.15.16-.3.31-.44.47a1.42,1.42,0,0,0-.22.28.3.3,0,0,0,0,.21.7.7,0,0,0,.13.17L141.48,86l.23.17a.26.26,0,0,0,.27,0,1.09,1.09,0,0,0,.17-.13l1.43-1.43a1,1,0,0,0,.08-.11.24.24,0,0,0,0-.27,2,2,0,0,0-.18-.23c-1.43-1.42-2.85-2.85-4.28-4.28l-.16-.14a.3.3,0,0,0-.45,0l-.41.4-1.79,1.78a3.89,3.89,0,0,1-.43.38.24.24,0,0,1-.27,0,1,1,0,0,1-.24-.17l-2-2a1,1,0,0,1-.32-.77c0-.31,0-.63,0-.94Zm4.53,0s0-.13-.09-.18L136,76.55l-.06,0a.26.26,0,0,0-.27,0l-.18.13L134.16,78a.66.66,0,0,0-.17.23.28.28,0,0,0,0,.2.42.42,0,0,0,.11.18L135.48,80a.48.48,0,0,0,.11.09.34.34,0,0,0,.46,0l.16-.14c.43-.42.86-.84,1.28-1.27a1.24,1.24,0,0,0,.17-.23A1.55,1.55,0,0,0,137.7,78.32Z"/><path class="cls-1" d="M78.39,133.16h.86a1,1,0,0,1,.77.32l.21.21c.51.5,1,1,1.52,1.52l.35.37a.36.36,0,0,1,0,.52l-.4.42L79.9,138.3c-.54.55-.54.55,0,1.07l4,4c.49.49.51.48,1,0L86,142.25l.23-.28a.26.26,0,0,0,0-.27,1.09,1.09,0,0,0-.13-.17l-2.9-2.91a.44.44,0,0,0-.18-.12.27.27,0,0,0-.2,0,1.93,1.93,0,0,0-.28.22l-.48.44a.24.24,0,0,1-.27,0l-.27-.24c-.59-.57-.59-.6,0-1.19l1-1c.09-.09.18-.16.27-.24a.24.24,0,0,1,.27,0,1.09,1.09,0,0,1,.17.13l.36.36,4.13,4.13.2.2c.46.47.47.51,0,1l-3.06,3.06-.15.15c-.28.26-.37.26-.66,0l-.41-.4-4.54-4.54c-.17-.17-.35-.33-.53-.49a.28.28,0,0,0-.39,0l-.52.49L73,145.22c-.17.17-.35.33-.53.48a.28.28,0,0,1-.28,0c-.09-.08-.19-.15-.27-.23-1-1-2.08-2.07-3.11-3.11-.45-.46-.45-.55,0-1l3.82-3.83.77-.76.26-.24a.26.26,0,0,1,.33,0,.48.48,0,0,1,.11.09L75.51,138l.13.18a.26.26,0,0,1,0,.27,3.9,3.9,0,0,1-.33.38c-.45.47-.5.48-1,0l-.37-.34a.27.27,0,0,0-.34,0l-.21.19-2.75,2.76c-.35.34-.34.41,0,.76s.81.82,1.22,1.22a3.11,3.11,0,0,0,.28.23.26.26,0,0,0,.27,0c.16-.15.33-.29.48-.44l3.21-3.21.82-.81c.06-.07.13-.14.19-.22a.26.26,0,0,0,0-.33c-.13-.14-.26-.29-.39-.42l-1.94-1.94c-.12-.12-.22-.25-.33-.37a.24.24,0,0,1,0-.27,2.15,2.15,0,0,1,.19-.22c.65-.65,1.29-1.3,1.94-1.94l.16-.15a.7.7,0,0,1,.52-.21h1.08Zm1.81,2.64a1,1,0,0,0-.16-.28l-1.41-1.42a.49.49,0,0,0-.18-.11.37.37,0,0,0-.21,0,.41.41,0,0,0-.17.12c-.5.48-1,1-1.47,1.46a.71.71,0,0,0-.12.18.22.22,0,0,0,0,.14.91.91,0,0,0,.16.24L78,137.49l.17.14a.31.31,0,0,0,.33,0,1.09,1.09,0,0,0,.17-.13L80,136.2a1.88,1.88,0,0,0,.16-.23A.49.49,0,0,0,80.2,135.8Z"/><path class="cls-1" d="M126.12,34.82h3.31a4.63,4.63,0,0,1,.65,0,.31.31,0,0,1,.24.24,2.25,2.25,0,0,1,.06.36c0,.21,0,.43,0,.64,0,1.13,0,2.26,0,3.39a4.73,4.73,0,0,1,0,.65.34.34,0,0,1-.29.28,3,3,0,0,1-.43,0h-6.34a3,3,0,0,1-.43,0,.36.36,0,0,1-.3-.28,1.35,1.35,0,0,1,0-.28V38.28a2.33,2.33,0,0,1,.06-.35.27.27,0,0,1,.2-.19,1.83,1.83,0,0,1,.93,0,.26.26,0,0,1,.18.21c0,.14,0,.28.06.42a3,3,0,0,0,0,.43.3.3,0,0,0,.23.25,1.59,1.59,0,0,0,.43.06h3.24l.58,0a.44.44,0,0,0,.47-.44,1.64,1.64,0,0,0,0-.22c0-.53,0-1.06,0-1.58a1.36,1.36,0,0,0,0-.29.35.35,0,0,0-.28-.29,3,3,0,0,0-.43,0h-5.76c-.43,0-.56.14-.56.58,0,.62,0,1.25,0,1.87,0,.34,0,.67,0,1a2.1,2.1,0,0,1-.05.43.35.35,0,0,1-.3.27,2.09,2.09,0,0,1-.43,0h-2.81a.84.84,0,0,1-.52-.22l-.16-.15c-.35-.36-.7-.72-1.07-1.07a1.11,1.11,0,0,1-.38-.89c0-.7,0-1.39,0-2.09,0-.22,0-.43,0-.65a.9.9,0,0,1,0-.28.28.28,0,0,1,.25-.23,3.64,3.64,0,0,1,.57,0h2.52a5.49,5.49,0,0,0,.58,0,.33.33,0,0,0,.29-.28c0-.24,0-.48,0-.72V29.18c0-.27,0-.53,0-.79a2.2,2.2,0,0,0,0-.36.33.33,0,0,0-.24-.24.92.92,0,0,0-.29,0h-1.73a1.35,1.35,0,0,0-.28,0,.32.32,0,0,0-.24.25,2,2,0,0,0,0,.42v3.47a2.73,2.73,0,0,0,.06.49.27.27,0,0,0,.2.2,2,2,0,0,0,.35.05l.5,0A.34.34,0,0,1,119,33a2.62,2.62,0,0,1,0,.79.36.36,0,0,1-.29.29,13.84,13.84,0,0,1-2.23,0,.35.35,0,0,1-.28-.29c0-.17,0-.34,0-.5V27.15a4.07,4.07,0,0,1,0-.5.34.34,0,0,1,.28-.3,3,3,0,0,1,.43,0c1.39,0,2.78,0,4.18,0,.71,0,.79.09.8.78s0,1.2,0,1.8v4.83q0,.36,0,.72a.36.36,0,0,0,.32.34,5.44,5.44,0,0,0,.57,0h3.32Zm-8.53,2.86h0v.79a1.34,1.34,0,0,0,0,.35.3.3,0,0,0,.23.25.92.92,0,0,0,.28,0h1.73a.92.92,0,0,0,.28,0,.34.34,0,0,0,.25-.23.93.93,0,0,0,0-.29V36.76a.59.59,0,0,0,0-.14.38.38,0,0,0-.32-.34l-.29,0H118a.39.39,0,0,0-.41.4C117.58,37,117.59,37.34,117.59,37.68Z"/><path class="cls-1" d="M121.88,126v3.32c0,.21,0,.43,0,.64a.42.42,0,0,1-.42.41h-4.54a3,3,0,0,1-.43,0,.4.4,0,0,1-.28-.31c0-.12,0-.23,0-.35v-6.49a1.59,1.59,0,0,1,.06-.43.25.25,0,0,1,.19-.19.92.92,0,0,1,.28,0h1.73l.28,0a.38.38,0,0,1,.28.3,3.22,3.22,0,0,1,0,.43c0,.52-.1.65-.62.66H118c-.29,0-.41.15-.43.47a2.71,2.71,0,0,0,0,.29c0,1.15,0,2.3,0,3.46,0,.72.07.78.78.79h1.51c.42,0,.55-.16.57-.58,0-.14,0-.29,0-.43v-5.12c0-.12,0-.24,0-.36,0-.54-.13-.65-.7-.67h-2.67l-.57,0a.35.35,0,0,1-.32-.33,1.43,1.43,0,0,1,0-.29v-2.59a.92.92,0,0,1,0-.29,1.07,1.07,0,0,1,.33-.54c.4-.41.82-.81,1.22-1.22a1,1,0,0,1,.76-.34h2.74l.22,0a.41.41,0,0,1,.4.42c0,.22,0,.43,0,.65v2.31a5.46,5.46,0,0,0,0,.57.34.34,0,0,0,.28.29c.24,0,.48,0,.72,0H128l.43,0c.3,0,.46-.16.47-.44,0-.67,0-1.35,0-2,0,0,0,0,0-.07a.38.38,0,0,0-.29-.29,5.44,5.44,0,0,0-.57,0h-3.46c-.12,0-.24,0-.36,0a.38.38,0,0,0-.28.3c0,.19,0,.38,0,.57a1.26,1.26,0,0,1-.05.28.29.29,0,0,1-.2.2,2,2,0,0,1-.85,0,.39.39,0,0,1-.28-.3,2.89,2.89,0,0,1,0-.29v-1.66a1.35,1.35,0,0,1,0-.28.34.34,0,0,1,.24-.25l.28,0h6.2l.72,0a.42.42,0,0,1,.37.38c0,.12,0,.24,0,.36,0,1.4,0,2.79,0,4.18v.15c0,.39-.14.52-.52.54h-7q-.36,0-.72,0a.3.3,0,0,0-.27.29,1.48,1.48,0,0,0,0,.21V126Zm-1.42-7h0c0-.24,0-.48,0-.72a2.19,2.19,0,0,0,0-.36.34.34,0,0,0-.29-.28,15,15,0,0,0-2.22,0,.35.35,0,0,0-.29.29,16.45,16.45,0,0,0,0,2.22.35.35,0,0,0,.29.29,1.33,1.33,0,0,0,.28,0c.53,0,1.06,0,1.58,0l.29,0a.41.41,0,0,0,.37-.38C120.44,119.68,120.45,119.33,120.46,119Z"/><path class="cls-1" d="M34.82,126.07c0-1.1,0-2.21,0-3.31,0-.22,0-.44,0-.65a.33.33,0,0,0-.29-.28c-.24,0-.48,0-.72,0H27.51c-.29,0-.57,0-.86,0a.35.35,0,0,1-.3-.28l0-.21V121c0-1.35,0-2.69,0-4,0-.71.07-.78.78-.78q3.11,0,6.2,0c.73,0,.79.07.8.77,0,.46,0,.91,0,1.37a2.09,2.09,0,0,1,0,.43.3.3,0,0,1-.23.24,1.79,1.79,0,0,1-.86,0,.31.31,0,0,1-.24-.25c0-.16,0-.33-.06-.5a2.09,2.09,0,0,0,0-.35.31.31,0,0,0-.25-.24,1.35,1.35,0,0,0-.28,0H28.35a1.51,1.51,0,0,0-.36.06.28.28,0,0,0-.19.2,1.26,1.26,0,0,0-.05.28v1.8a1.52,1.52,0,0,0,0,.21.35.35,0,0,0,.29.28l.22,0H34a5.23,5.23,0,0,0,.57-.06.27.27,0,0,0,.23-.25,3.64,3.64,0,0,0,0-.57c0-.82,0-1.63,0-2.45,0-.22,0-.43,0-.65a.34.34,0,0,1,.28-.29c.12,0,.24,0,.36,0h2.81a.71.71,0,0,1,.52.2c.5.49,1,1,1.48,1.48a.78.78,0,0,1,.23.52,2.62,2.62,0,0,1,0,.28V121c0,.12,0,.24,0,.36a.38.38,0,0,1-.36.38,5.49,5.49,0,0,1-.58,0c-.79,0-1.58,0-2.38,0a4.6,4.6,0,0,0-.64,0,.34.34,0,0,0-.28.3c0,.22,0,.43,0,.65q0,2.34,0,4.68c0,.29,0,.58,0,.87a1.33,1.33,0,0,0,0,.28.35.35,0,0,0,.27.3l.22,0h1.8a.78.78,0,0,0,.21,0,.35.35,0,0,0,.29-.28,2.2,2.2,0,0,0,0-.36v-3.68c0-.51-.16-.64-.65-.65H38.4c-.63,0-.7-.14-.71-.72,0-.07,0-.15,0-.22,0-.34.14-.47.5-.48H40a.76.76,0,0,1,.21,0,.36.36,0,0,1,.3.28,4,4,0,0,1,0,.5c0,.55,0,1.1,0,1.66,0,1.44,0,2.88,0,4.32q0,.36,0,.72a.38.38,0,0,1-.34.32,4.36,4.36,0,0,1-.51,0h-4a5.46,5.46,0,0,1-.57,0,.36.36,0,0,1-.28-.3c0-.22,0-.44,0-.65C34.82,128.28,34.82,127.18,34.82,126.07ZM36.26,119h0v.93a1.45,1.45,0,0,0,0,.29.29.29,0,0,0,.19.2.94.94,0,0,0,.28.06h1.79l.15,0a.4.4,0,0,0,.38-.36,3.11,3.11,0,0,0,0-.43c0-.43,0-.86,0-1.29a2.81,2.81,0,0,0,0-.29c0-.3-.15-.44-.44-.46h-.14c-.55,0-1.1,0-1.65,0s-.6.12-.62.59C36.25,118.43,36.26,118.7,36.26,119Z"/><path class="cls-1" d="M30.59,34.82h3.24c.22,0,.44,0,.65,0a.36.36,0,0,0,.32-.34c0-.19,0-.38,0-.57,0-.67,0-1.35,0-2,0-1.51,0-3,0-4.54a5.79,5.79,0,0,1,0-.72.28.28,0,0,1,.24-.24,3.64,3.64,0,0,1,.57,0c1,0,2,0,3,0,.39,0,.77,0,1.16,0a3.13,3.13,0,0,1,.43,0,.36.36,0,0,1,.29.28,4.38,4.38,0,0,1,0,.5c0,.46,0,.92,0,1.37V33c0,.22,0,.43,0,.65s-.14.44-.44.46H38.3a2,2,0,0,1-.35-.05.29.29,0,0,1-.2-.2,1.69,1.69,0,0,1,0-.92.22.22,0,0,1,.19-.19l.5-.07a2.84,2.84,0,0,0,.42-.05.26.26,0,0,0,.2-.19,3,3,0,0,0,.06-.5c0-.63,0-1.25,0-1.88s0-1,0-1.44c0-.16,0-.33,0-.5a.37.37,0,0,0-.32-.34l-.22,0H36.83a.9.9,0,0,0-.28,0,.32.32,0,0,0-.25.24,2,2,0,0,0,0,.35c0,.29,0,.58,0,.87,0,1.51,0,3,0,4.54q0,.36,0,.72a.34.34,0,0,0,.29.28c.21,0,.43,0,.65,0h2.45a3.64,3.64,0,0,1,.57,0,.33.33,0,0,1,.24.24,1,1,0,0,1,0,.29c0,.91,0,1.82,0,2.73a1,1,0,0,1-.29.72c-.45.43-.89.88-1.33,1.32a1,1,0,0,1-.71.29H35.41a1.35,1.35,0,0,1-.29,0,.3.3,0,0,1-.24-.24,3.66,3.66,0,0,1-.05-.57c0-.79,0-1.59,0-2.38,0-.22,0-.43,0-.65a.35.35,0,0,0-.28-.29,4.19,4.19,0,0,0-.5,0H28.53c-.71,0-.78.07-.78.78,0,.46,0,.92,0,1.37,0,.12,0,.24,0,.36a.38.38,0,0,0,.33.33l.29,0H32l.36,0a.36.36,0,0,0,.29-.29c0-.16,0-.33,0-.5s0-.24,0-.35a.29.29,0,0,1,.19-.2,1.83,1.83,0,0,1,.93,0,.28.28,0,0,1,.19.19.8.8,0,0,1,.05.21V40a.8.8,0,0,1,0,.15.36.36,0,0,1-.24.24.78.78,0,0,1-.21,0H26.83c-.35,0-.48-.14-.5-.47a2.81,2.81,0,0,1,0-.29V35.58a3.11,3.11,0,0,1,0-.43.33.33,0,0,1,.28-.29c.21,0,.43,0,.64,0Zm5.68,2.85h0c0,.27,0,.53,0,.79a2.19,2.19,0,0,0,0,.36.33.33,0,0,0,.23.25.78.78,0,0,0,.21,0H38.6a.46.46,0,0,0,.51-.48c0-.05,0-.1,0-.14V36.83a1.49,1.49,0,0,0,0-.21.38.38,0,0,0-.32-.34l-.29,0h-1.8a.39.39,0,0,0-.42.4C36.26,37,36.27,37.34,36.27,37.67Z"/><path class="cls-1" d="M49.06,26.32H55.9c1,0,.86,0,1.52-.61l9.63-9.64c.19-.18.38-.37.58-.54a.27.27,0,0,1,.39,0l.42.39,6.88,6.88c.15.15.29.32.43.48a.17.17,0,0,1-.08.24.78.78,0,0,1-.21,0l-1,.07a.61.61,0,0,1-.46-.16L73.53,23l-5-5c-.17-.17-.35-.32-.53-.48a.28.28,0,0,0-.28,0l-.22.18-.46.46L58.12,27l-.46.45a.87.87,0,0,1-.71.29H43.76c-.27,0-.53,0-.79,0a.35.35,0,0,0-.33.33c0,.24,0,.48,0,.72q0,3.49,0,7c0,.24,0,.48,0,.71a.56.56,0,0,1-.15.32c-.31.3-.65.57-1,.85-.06,0-.21,0-.23-.1s0-.14,0-.21V27.44c0-.19,0-.39,0-.58,0-.4.13-.52.52-.54.21,0,.43,0,.64,0Z"/><path class="cls-1" d="M41.19,124.48c0-1.64,0-3.27,0-4.91,0-.19,0-.38,0-.57a.16.16,0,0,1,.18-.07c.18.13.36.25.52.39a5.25,5.25,0,0,1,.42.4.8.8,0,0,1,.26.57V121q0,3.39,0,6.78c0,.26,0,.53,0,.79a.38.38,0,0,0,.32.34,1.43,1.43,0,0,0,.29,0H56.31c1.2,0,1-.08,1.82.74q4.45,4.47,8.92,8.92l.52.51a.3.3,0,0,0,.45,0l.46-.45,5-5c.15-.15.3-.31.47-.45a.71.71,0,0,1,.31-.16,3.48,3.48,0,0,1,1.36.09.18.18,0,0,1,.07.29l-.09.11-.2.2-7,7a5,5,0,0,1-.49.43.24.24,0,0,1-.27,0,1.19,1.19,0,0,1-.23-.16l-.52-.51-9.28-9.28c-.92-.91-.66-.81-2-.81H42.42c-.29,0-.58,0-.86,0a.36.36,0,0,1-.34-.33c0-.23,0-.47,0-.71C41.18,127.7,41.19,126.09,41.19,124.48Z"/><path class="cls-1" d="M130.39,49.14v6.63c0,.24,0,.48,0,.72a.72.72,0,0,0,.21.52l.5.52,8.26,8.26,1.53,1.53c.1.1.19.21.29.32a.24.24,0,0,1,0,.27l-.33.37-2.14,2.14-4.79,4.79c-.16.16-.31.31-.47.45s-.31.08-.35-.14l-.06-.28c0-.12,0-.24,0-.36,0-.73,0-.75.5-1.27l5.14-5.15c.17-.17.34-.34.5-.52a.27.27,0,0,0,0-.33c-.16-.18-.33-.36-.5-.53l-9-9c-.18-.18-.37-.37-.55-.57a.62.62,0,0,1-.16-.39c0-.26,0-.53,0-.79V43.67c0-.21,0-.43,0-.64a.41.41,0,0,0-.36-.39l-.8,0h-7.56a.6.6,0,0,1-.4-.17,5.1,5.1,0,0,1-.88-1c0-.06,0-.17.09-.17a3.13,3.13,0,0,1,.43,0h9.8c.27,0,.53,0,.79,0a.35.35,0,0,1,.3.27,2.2,2.2,0,0,1,0,.36c0,.29,0,.58,0,.87Z"/><path class="cls-1" d="M129,106.51v-6.42c0-.87,0-.83.6-1.45q4.5-4.52,9-9l.45-.46c.26-.27.26-.37,0-.66l-.36-.36c-1.66-1.66-3.32-3.33-5-5-.15-.16-.31-.31-.45-.47a.67.67,0,0,1-.15-.32,3.1,3.1,0,0,1,.1-1.42.15.15,0,0,1,.18-.07l.12.08.26.25,7,7c.15.15.29.32.43.48a.32.32,0,0,1,0,.34,1.3,1.3,0,0,1-.18.23c-.14.16-.3.31-.45.46l-9.43,9.43c-.17.17-.33.34-.49.52a.71.71,0,0,0-.19.46c0,.26,0,.53,0,.79v13.4c0,.27,0,.53,0,.8a.34.34,0,0,1-.33.31,5.63,5.63,0,0,1-.58,0h-9.87c-.17,0-.34,0-.5,0s-.18-.14-.12-.21c.3-.34.6-.69.91-1a.5.5,0,0,1,.32-.14,5.54,5.54,0,0,1,.71,0h7q.36,0,.72,0a.35.35,0,0,0,.33-.33q0-.36,0-.72Z"/><path class="cls-1" d="M26.32,107.57q0-3.39,0-6.78c0-1,0-.86-.61-1.51l-9.64-9.64-.54-.57a.3.3,0,0,1,0-.4l.35-.36q3.54-3.54,7.09-7.09a2.91,2.91,0,0,1,.37-.33s.1,0,.13,0a.15.15,0,0,1,.08.11c0,.43.08.86.11,1.29a.47.47,0,0,1-.12.34c-.16.18-.32.35-.49.52l-5,5c-.17.17-.33.35-.49.53a.27.27,0,0,0,0,.33,2,2,0,0,0,.19.22c.15.16.3.31.46.46l8.71,8.72.41.4c.45.47.45.47.46,1.15,0,.19,0,.38,0,.58v12.54c0,.84.05.87.92.88h7.71a.73.73,0,0,1,.46.19,5,5,0,0,1,.8.92c.1.14,0,.28-.16.29l-.5,0H27.31c-.22,0-.43,0-.65,0a.37.37,0,0,1-.32-.34,2.64,2.64,0,0,1,0-.29c0-.19,0-.38,0-.57Z"/><path class="cls-1" d="M106.56,27.74c-2.06,0-4.13,0-6.2,0-1.16,0-1,.07-1.76-.71l-9-9c-.18-.19-.38-.37-.57-.54a.29.29,0,0,0-.4,0l-.47.45-5,5-.53.5a.43.43,0,0,1-.26.09c-.46,0-.91-.05-1.37-.08a.12.12,0,0,1-.1-.08.15.15,0,0,1,0-.13.42.42,0,0,1,.08-.12l.35-.36Q84.77,19.42,88.2,16c.17-.17.36-.32.53-.48a.26.26,0,0,1,.28,0l.22.17.46.46,9.48,9.48.52.5a.72.72,0,0,0,.52.21H115a.39.39,0,0,1,.42.4c0,.24,0,.48,0,.72V37c0,.12,0,.24,0,.36a.29.29,0,0,1-.1.26c0,.05-.15,0-.26,0l-.45-.37c-.6-.55-.61-.55-.61-1.36V28.73c0-.19,0-.38,0-.57a.4.4,0,0,0-.43-.4l-.57,0h-6.42Z"/><path class="cls-1" d="M26.32,49V42.46c0-.19,0-.38,0-.58,0-.6.09-.68.73-.69h10a4.07,4.07,0,0,1,.5,0,.18.18,0,0,1,.12.28l-.74.88a.65.65,0,0,1-.51.22H28.79l-.72,0a.35.35,0,0,0-.29.28,1.36,1.36,0,0,0,0,.29c0,.24,0,.48,0,.72V56.62c0,.75,0,.75-.51,1.27l-.41.41-8.76,8.76c-.19.19-.37.38-.54.58a.27.27,0,0,0,0,.33c.16.18.32.36.49.53,1.66,1.67,3.33,3.33,5,5l.46.47a.62.62,0,0,1,.19.52l-.09,1.15a.16.16,0,0,1-.23.08c-.14-.12-.29-.25-.42-.38-1-1-1.91-1.9-2.86-2.86q-2-2-4.07-4.07c-.16-.16-.3-.32-.44-.48a.21.21,0,0,1,0-.27,1.09,1.09,0,0,1,.13-.17l.51-.51,9.37-9.38c.15-.15.3-.31.46-.46a1,1,0,0,0,.33-.83c0-.2,0-.39,0-.58Z"/><path class="cls-1" d="M107.55,130.39h-7.43a.74.74,0,0,0-.52.22l-.51.5-9.48,9.47c-.19.19-.39.36-.59.54a.26.26,0,0,1-.27,0,1.88,1.88,0,0,1-.18-.12l-.36-.35-6.77-6.78c-.16-.15-.3-.32-.44-.48a.17.17,0,0,1,.06-.24l.27-.09.58,0a1.18,1.18,0,0,1,1,.4c1.2,1.22,2.41,2.42,3.61,3.63l1.79,1.78.37.34a.24.24,0,0,0,.27,0,1.24,1.24,0,0,0,.22-.18l.46-.46,8.82-8.81.51-.51a.92.92,0,0,1,.65-.26h13.19c.29,0,.57,0,.86,0a.33.33,0,0,0,.28-.29c0-.21,0-.43,0-.65v-7c0-.19,0-.38,0-.57a.87.87,0,0,1,.36-.75c.28-.22.54-.47.81-.71a.15.15,0,0,1,.23.08,1.5,1.5,0,0,1,0,.22c0,.14,0,.28,0,.43v9.65c0,.24,0,.48,0,.72a.33.33,0,0,1-.28.29c-.22,0-.43,0-.65,0h-6.91Z"/><path class="cls-1" d="M126.4,130.39h-3a4.6,4.6,0,0,1-.64,0,.32.32,0,0,1-.24-.25.71.71,0,0,1,0-.21c0-.19,0-.38,0-.57v-5.7c0-.24,0-.48,0-.71a.37.37,0,0,1,.32-.34,4.38,4.38,0,0,1,.5,0h6.2a4,4,0,0,1,.5,0,.36.36,0,0,1,.28.3,3.64,3.64,0,0,1,0,.57c0,.77,0,1.54,0,2.3v3.61c0,.21,0,.43,0,.64a.4.4,0,0,1-.36.39c-.22,0-.43,0-.65,0Zm-2.46-4h0v1.73a4.21,4.21,0,0,0,0,.5.35.35,0,0,0,.29.28,2.1,2.1,0,0,0,.43.05h3.67c.42,0,.56-.15.58-.56,0-.17,0-.34,0-.51V125c0-.15,0-.29,0-.43,0-.51-.14-.63-.66-.64h-3.74l-.28,0a.38.38,0,0,0-.3.28c0,.16,0,.33,0,.5Z"/><path class="cls-1" d="M34.1,126.45c0,1,0,2,0,3,0,.21,0,.43,0,.65a.35.35,0,0,1-.28.29l-.21,0h-6.2l-.65,0a.42.42,0,0,1-.4-.43c0-.15,0-.29,0-.44,0-2,0-4.08,0-6.12a3.77,3.77,0,0,1,0-.58.33.33,0,0,1,.24-.24l.29,0h6.56c.54,0,.64.11.65.63,0,.16,0,.33,0,.5C34.11,124.58,34.1,125.52,34.1,126.45Zm-6.36,0c0,.57,0,1.15,0,1.73a2.89,2.89,0,0,0,0,.5.3.3,0,0,0,.24.24,4.07,4.07,0,0,0,.49.05h3.53c.49,0,.6-.12.62-.59v-.14c0-1.18,0-2.35,0-3.53a3.22,3.22,0,0,0,0-.43.36.36,0,0,0-.28-.29,5.63,5.63,0,0,0-.58,0h-3.6a.41.41,0,0,0-.42.4c0,.14,0,.29,0,.43Z"/><path class="cls-1" d="M126.44,34.1h-3.52a.4.4,0,0,1-.4-.43c0-.19,0-.38,0-.57V27.33c0-.19,0-.38,0-.57s.16-.42.47-.43h.36c2,0,4.07,0,6.11,0a5.44,5.44,0,0,1,.57,0,.36.36,0,0,1,.3.28,2,2,0,0,1,0,.42c0,.34,0,.67,0,1v5c0,.22,0,.43,0,.65a.41.41,0,0,1-.4.42h-3.53Zm0-1.43h1.73a4.19,4.19,0,0,0,.5,0,.35.35,0,0,0,.28-.29,3.13,3.13,0,0,0,0-.43V28.46c0-.07,0-.14,0-.21,0-.35-.15-.48-.48-.5h-.22q-1.8,0-3.6,0a2.09,2.09,0,0,0-.43,0A.33.33,0,0,0,124,28l0,.14c0,.1,0,.19,0,.29v3.46c0,.14,0,.28,0,.43a.38.38,0,0,0,.28.29l.51,0Z"/><path class="cls-1" d="M34.1,30.2c0,1,0,2.07,0,3.1,0,.73-.07.8-.77.8H27.06a2.73,2.73,0,0,1-.49-.06.26.26,0,0,1-.2-.19.78.78,0,0,1,0-.21c0-.17,0-.34,0-.51V27.3c0-.17,0-.34,0-.51s.14-.44.43-.46h.65c1.42,0,2.83,0,4.25,0,.58,0,1.16,0,1.73,0s.71.09.71.71c0,1.06,0,2.12,0,3.17Zm-1.43,0h0c0-.56,0-1.11,0-1.66a4.07,4.07,0,0,0,0-.5.35.35,0,0,0-.29-.29c-.21,0-.43,0-.64,0H28.32c-.44,0-.55.13-.57.56,0,.17,0,.34,0,.51v2.95a2.35,2.35,0,0,0,.06.65.29.29,0,0,0,.2.19,1.35,1.35,0,0,0,.35.06H32c.52,0,.63-.12.64-.64S32.67,30.83,32.67,30.23Z"/><path class="cls-1" d="M78.31,141a.59.59,0,0,1,.14,0,.81.81,0,0,1,.18.12l.31.3q2.2,2.19,4.39,4.39a4,4,0,0,1,.34.37.26.26,0,0,1,0,.27l-.08.12-.25.25L78.8,151.4c-.49.49-.49.49-1,0l-4.48-4.48-.3-.32a.33.33,0,0,1,0-.46l.2-.21,4.64-4.63a3.08,3.08,0,0,1,.27-.24A.69.69,0,0,1,78.31,141Zm.06,2s-.1,0-.13,0a3,3,0,0,0-.39.32l-2.54,2.54c-.46.46-.46.51,0,1l2.55,2.54a2,2,0,0,0,.21.2.29.29,0,0,0,.44,0,2,2,0,0,0,.21-.2l2.65-2.64.24-.27a.29.29,0,0,0,.07-.12.22.22,0,0,0,0-.14,2.18,2.18,0,0,0-.26-.34c-.86-.87-1.73-1.73-2.6-2.59a2.79,2.79,0,0,0-.32-.28A.34.34,0,0,0,78.37,143Z"/><path class="cls-1" d="M146.38,83.71a.33.33,0,0,1-.14,0,2.88,2.88,0,0,1-.27-.22l-4.64-4.64c-.1-.11-.19-.22-.28-.34a.26.26,0,0,1,0-.27c.14-.16.28-.33.43-.48l3.32-3.31c.37-.38.74-.75,1.12-1.12a3,3,0,0,1,.33-.28.24.24,0,0,1,.27,0c.11.09.23.18.33.28l1.07,1.07,3.31,3.31c.16.15.31.31.45.47a.27.27,0,0,1,0,.33,1.15,1.15,0,0,1-.14.17l-.3.31L147,83.22l-.47.44S146.42,83.69,146.38,83.71Zm3.37-5.38a.58.58,0,0,0,0-.14,1.09,1.09,0,0,0-.13-.17l-2.85-2.85-.17-.14a.29.29,0,0,0-.33,0c-.11.09-.23.19-.33.29l-1.17,1.17c-.51.5-1,1-1.52,1.53-.26.26-.26.4,0,.67l.3.31,2.29,2.29.26.25a1.09,1.09,0,0,0,.17.13.26.26,0,0,0,.27,0c.09-.08.19-.15.27-.23l2.7-2.7.23-.27A.35.35,0,0,0,149.75,78.33Z"/><path class="cls-1" d="M78.27,15.65a.35.35,0,0,1-.13-.05l-.31-.29c-1.5-1.5-3-3-4.49-4.49-.12-.12-.22-.25-.33-.38a.26.26,0,0,1,0-.27c.11-.13.21-.26.33-.38L75.21,7.9c.84-.83,1.67-1.67,2.5-2.5L78.13,5a.31.31,0,0,1,.45,0c.13.11.25.23.37.35,1.44,1.44,2.89,2.88,4.33,4.33.14.13.26.28.39.42a.26.26,0,0,1,0,.28c-.08.09-.15.18-.24.27l-4.74,4.74a2.09,2.09,0,0,1-.28.22A.3.3,0,0,1,78.27,15.65Zm0-2a.58.58,0,0,0,.14,0,2.09,2.09,0,0,0,.28-.22c.28-.26.55-.54.82-.81l1.83-1.83a2.37,2.37,0,0,0,.32-.39.23.23,0,0,0,0-.2,1.19,1.19,0,0,0-.21-.29L78.74,7.16c-.34-.33-.45-.33-.78,0C77,8.07,76.13,9,75.22,9.91c-.33.33-.33.44,0,.77L78,13.43l.22.19A.75.75,0,0,0,78.31,13.68Z"/><path class="cls-1" d="M15.66,78.29s0,.11,0,.14-.28.33-.43.48c-1.44,1.45-2.89,2.89-4.33,4.33l-.42.4a.26.26,0,0,1-.33,0,2.89,2.89,0,0,1-.32-.29L5.3,78.88c-.1-.1-.2-.21-.29-.32a.31.31,0,0,1,0-.45l.35-.36L9.7,73.41c.6-.59.6-.59,1.19,0l4.38,4.39c.12.12.23.24.34.37A.69.69,0,0,1,15.66,78.29Zm-2,.07a.32.32,0,0,0,0-.14,1.32,1.32,0,0,0-.18-.22c-.93-.94-1.86-1.87-2.8-2.8a1.74,1.74,0,0,0-.22-.18.31.31,0,0,0-.28,0l-.28.23L7.15,78A1,1,0,0,0,7,78.2a.24.24,0,0,0,0,.27,2.09,2.09,0,0,0,.22.28L9.93,81.5c.07.07.15.12.22.18a.28.28,0,0,0,.28,0l.22-.17c.93-.94,1.87-1.87,2.8-2.8a1.3,1.3,0,0,0,.18-.23S13.66,78.41,13.67,78.36Z"/><path class="cls-1" d="M48.84,126.81h3a5.56,5.56,0,0,1,.58,0,1.54,1.54,0,0,1,.48.12c.74.35,1.46.72,2.19,1.09a.13.13,0,0,1,0,.12s-.06.07-.1.07l-.57,0H44.34a5.53,5.53,0,0,1-.71,0,.3.3,0,0,1-.25-.23.76.76,0,0,1,0-.21c0-.15,0-.29,0-.44v-5.9c0-.14,0-.28,0-.43a.19.19,0,0,1,.3-.17c.3.24.61.47.9.72a.52.52,0,0,1,.19.37c0,.22,0,.43,0,.65,0,1,0,2.06,0,3.09,0,.2,0,.39,0,.58,0,.47.12.57.62.58h3.45Z"/><path class="cls-1" d="M128.24,49.44v5.19c0,.17,0,.33,0,.5l0,0h-.06a.35.35,0,0,1-.1-.11c-.33-.66-.66-1.33-1-2a1.71,1.71,0,0,1-.18-.77V45.81c0-.24,0-.48,0-.72a.33.33,0,0,0-.28-.29c-.21,0-.43,0-.64,0H122a.53.53,0,0,1-.39-.18c-.25-.31-.51-.63-.75-1a.16.16,0,0,1,.14-.25l.14,0h6.2a4.58,4.58,0,0,1,.64,0,.29.29,0,0,1,.25.23,2.09,2.09,0,0,1,0,.43c0,.5,0,1,0,1.51Z"/><path class="cls-1" d="M97,26.79,94.73,26a1.14,1.14,0,0,1-.42-.26l-.41-.41L89.57,21c-.17-.17-.35-.33-.53-.49a.27.27,0,0,0-.33,0l-.48.44-2.29,2.29a4.89,4.89,0,0,1-.47.44.58.58,0,0,1-.32.14,3.52,3.52,0,0,1-1.29-.08.21.21,0,0,1-.11-.08s0-.1,0-.13a1.7,1.7,0,0,1,.26-.34c1.47-1.48,3-2.95,4.43-4.43.1-.1.21-.19.32-.28a.28.28,0,0,1,.28,0l.17.13.41.4,7.12,7.13c.16.15.31.31.45.47s0,.1,0,.12S97.1,26.78,97,26.79Z"/><path class="cls-1" d="M59.58,129.9l.2,0,2,.66a1.6,1.6,0,0,1,.72.45l.41.41,4.28,4.27.47.44a.24.24,0,0,0,.27,0c.15-.12.29-.25.43-.38l2.44-2.45.42-.39a.59.59,0,0,1,.52-.18l1.15.14a.15.15,0,0,1,.09.22,3.22,3.22,0,0,1-.24.28l-4.53,4.53-.26.23a.23.23,0,0,1-.27,0c-.13-.11-.26-.21-.38-.33l-2-2L60,130.51c-.15-.15-.29-.32-.43-.48,0,0,0-.05,0-.07S59.55,129.93,59.58,129.9Z"/><path class="cls-1" d="M23.87,84.65a1.77,1.77,0,0,0,0,.23.85.85,0,0,1-.27.71l-.4.41c-.75.75-1.49,1.5-2.24,2.24l-.4.42a.32.32,0,0,0,0,.45c.14.16.29.32.45.47l4.32,4.33.41.41a1.29,1.29,0,0,1,.26.42c.25.78.51,1.55.76,2.33a.12.12,0,0,1,0,.12.13.13,0,0,1-.13,0,1.34,1.34,0,0,1-.21-.2l-7.54-7.53c-.11-.12-.23-.24-.34-.37a.3.3,0,0,1,0-.39c.09-.11.19-.22.29-.32L23.17,84l.32-.29a.17.17,0,0,1,.25.07,1.72,1.72,0,0,1,.07.21Z"/><path class="cls-1" d="M28.47,49.31c0-1.64,0-3.27,0-4.9,0-.24,0-.48,0-.72a.36.36,0,0,1,.33-.33l.58,0h3.46c.79,0,1.58,0,2.37,0,.17,0,.33,0,.5,0s.14.16.1.24,0,0,0,.06c-.22.29-.43.57-.66.85a.57.57,0,0,1-.44.22H30.89c-.22,0-.44,0-.65,0a.35.35,0,0,0-.32.33c0,.2,0,.39,0,.58v6a5.42,5.42,0,0,1,0,.57,1.53,1.53,0,0,1-.11.49c-.36.74-.73,1.46-1.1,2.19,0,0-.08,0-.13,0a.07.07,0,0,1,0,0c0-.19,0-.38,0-.57C28.46,52.71,28.47,51,28.47,49.31Z"/><path class="cls-1" d="M49.38,28.46h5c.19,0,.38,0,.57,0a.06.06,0,0,1,0,.05s0,.09,0,.12a.23.23,0,0,1-.11.08L53,29.69a1.85,1.85,0,0,1-.83.2H45.78a5.79,5.79,0,0,0-.72,0,.28.28,0,0,0-.24.23,4.74,4.74,0,0,0,0,.65c0,1.05,0,2.11,0,3.17v.57a.76.76,0,0,1-.33.68c-.28.2-.54.4-.82.59-.06.05-.21,0-.23-.1a.7.7,0,0,1,0-.14c0-.12,0-.24,0-.36V29.32a5.46,5.46,0,0,1,0-.57.31.31,0,0,1,.24-.24.92.92,0,0,1,.29,0h5.47Z"/><path class="cls-1" d="M132.74,71.61a1.53,1.53,0,0,1,.17-.37,4.89,4.89,0,0,1,.44-.47c.79-.8,1.59-1.6,2.39-2.39.62-.62.61-.59,0-1.18l-3.31-3.3-1.17-1.18a2,2,0,0,1-.79-1.33c-.13-.43-.31-.86-.45-1.29a3.79,3.79,0,0,1-.14-.48s0-.07.08-.1.05,0,.06,0c.18.16.36.31.53.48l6.27,6.26L138,67.39c.35.35.35.43,0,.76l-4.63,4.64a2.13,2.13,0,0,1-.22.18c-.05,0-.18,0-.18-.06C132.86,72.49,132.8,72.06,132.74,71.61Z"/><path class="cls-1" d="M26.78,59.56a1.2,1.2,0,0,1,0,.2c-.24.71-.49,1.41-.73,2.11a1.52,1.52,0,0,1-.37.61c-.15.16-.3.31-.46.46L21,67.17c-.65.65-.67.63,0,1.29l2.4,2.39.39.41a.47.47,0,0,1,.14.33l-.09,1.15a.25.25,0,0,1,0,.07c0,.17-.19.24-.32.13l-.31-.3L20.3,69.79l-1.48-1.47-.25-.27c-.15-.17-.14-.32,0-.51l.15-.15.2-.21,7.28-7.27c.13-.14.28-.26.42-.39h.07Z"/><path class="cls-1" d="M85,132.74a1.63,1.63,0,0,1,.38.17,3.19,3.19,0,0,1,.42.4l2.35,2.34.41.41c.21.19.34.19.56,0l.41-.41,4.23-4.23c.15-.15.3-.31.46-.45a1.19,1.19,0,0,1,.36-.24l2.39-.79a.22.22,0,0,1,.1.08s0,0,0,.06a.83.83,0,0,1-.08.12l-.36.36-7.18,7.19-.42.39a.27.27,0,0,1-.39,0,3.07,3.07,0,0,1-.26-.25L84,133.49a2.88,2.88,0,0,1-.28-.33c-.06-.07,0-.23.07-.24Z"/><path class="cls-1" d="M72.07,23.86h-.34a.81.81,0,0,1-.59-.23c-.13-.14-.27-.27-.41-.4l-2.34-2.35L68,20.51a.26.26,0,0,0-.27,0c-.13.11-.26.21-.38.33l-2,2-2.44,2.45c-.15.15-.3.31-.47.45A1.7,1.7,0,0,1,62,26l-2.38.8a.11.11,0,0,1-.06,0s0-.05,0-.06a1.13,1.13,0,0,1,.12-.18l.76-.77L67.11,19c.73-.73.66-.75,1.39,0l4,4,.39.41c.12.13.07.28-.12.32S72.23,23.84,72.07,23.86Z"/><path class="cls-1" d="M129.94,96.89l.74-2.23a1.17,1.17,0,0,1,.27-.42l.45-.46,4.18-4.18.36-.36c.36-.37.36-.43,0-.82l-2.59-2.6c-.16-.15-.3-.31-.44-.47a.45.45,0,0,1-.12-.34c.05-.4.1-.81.16-1.21a.17.17,0,0,1,.23-.09,1.56,1.56,0,0,1,.28.23L138,88.47a2,2,0,0,1,.19.22.26.26,0,0,1,0,.33c-.11.13-.23.25-.35.37l-7.33,7.34a3.9,3.9,0,0,1-.38.33s-.08,0-.12,0,0,0,0-.06A.46.46,0,0,1,129.94,96.89Z"/><path class="cls-1" d="M107.28,128.24h-5c-.22,0-.43,0-.65,0,0,0-.06-.06-.08-.1s0,0,0-.06.33-.19.5-.28c.47-.24.95-.46,1.42-.71a1.88,1.88,0,0,1,1-.24h7c.37,0,.5-.16.53-.55,0-.19,0-.38,0-.57v-3.1c0-.19,0-.38,0-.58a.72.72,0,0,1,.28-.56l.79-.62a.17.17,0,0,1,.23.1c0,.15,0,.29,0,.43q0,3,0,6.05a4.07,4.07,0,0,1,0,.5.34.34,0,0,1-.28.3,3,3,0,0,1-.43,0h-5.25Z"/><path class="cls-1" d="M128.24,107.26c0,1.66,0,3.31,0,5q0,.36,0,.72a.33.33,0,0,1-.28.29l-.72,0h-5.83l-.43,0c-.1,0-.18-.14-.12-.21.22-.29.43-.57.66-.85a.65.65,0,0,1,.5-.24h3.82l.65,0a.37.37,0,0,0,.32-.34c0-.23,0-.47,0-.71,0-1.95,0-3.89,0-5.84a3.4,3.4,0,0,1,.46-1.92c.29-.49.51-1,.77-1.54,0,0,.08,0,.13,0s0,0,0,0a1.52,1.52,0,0,1,0,.21c0,.19,0,.38,0,.58Z"/><path class="cls-1" d="M28.47,107.23V102a.68.68,0,0,1,.06-.42s.06,0,.07,0a.32.32,0,0,1,.1.1c.35.69.69,1.38,1,2.06a1.53,1.53,0,0,1,.15.63v6.55c0,.24,0,.48,0,.72a.33.33,0,0,0,.28.29c.21,0,.43,0,.64,0h3.31c.22,0,.44,0,.65,0a.45.45,0,0,1,.32.16c.22.27.45.56.66.84a.18.18,0,0,1-.13.28c-.14,0-.28,0-.43,0h-5.9a3.69,3.69,0,0,1-.58,0,.3.3,0,0,1-.24-.24,4.73,4.73,0,0,1,0-.65c0-1.1,0-2.21,0-3.31v-1.8Z"/><path class="cls-1" d="M107.24,28.46h5c.24,0,.48,0,.71,0a.35.35,0,0,1,.33.33l0,.58V35.1c0,.19,0,.38,0,.57a.19.19,0,0,1-.28.12l-.12-.07-.67-.55a.54.54,0,0,1-.21-.44c0-.22,0-.43,0-.65V30.84a4.6,4.6,0,0,0,0-.64.32.32,0,0,0-.3-.27l-.72,0H105a2.59,2.59,0,0,1-1.92-.45l-1.54-.79s0,0,0-.06,0-.09.08-.1l.21,0h5.41Z"/><path class="cls-1" d="M78.41,28.49h1.73c.36,0,.71.05,1.07.07l.22,0c.69,0,1.39.09,2.08.15s1.19.14,1.79.22a49.17,49.17,0,0,1,5.09,1c.65.16,1.3.33,2,.53,1.65.5,3.29,1.05,4.89,1.71.78.33,1.55.65,2.31,1,1.25.63,2.5,1.23,3.71,1.93a50,50,0,0,1,6.19,4.22,37.91,37.91,0,0,1,2.88,2.5c.22.22.46.42.69.64s.69.67,1,1,.51.58.78.85c.88.89,1.67,1.86,2.46,2.83s1.66,2.17,2.43,3.31,1.35,2.1,2,3.18,1,1.9,1.51,2.87a51.16,51.16,0,0,1,2,4.71,49.41,49.41,0,0,1,1.72,5.8c.34,1.41.59,2.83.79,4.25.08.6.18,1.19.23,1.79.07.93.21,1.86.2,2.8a11.45,11.45,0,0,0,.07,1.3,12.62,12.62,0,0,1,0,2.3c0,.46-.07.91-.08,1.37a15.36,15.36,0,0,1-.11,1.79c-.07.53-.1,1-.16,1.58-.19,1.57-.45,3.14-.78,4.69a49.38,49.38,0,0,1-1.65,5.82,44.44,44.44,0,0,1-1.81,4.47c-.19.39-.35.8-.55,1.18q-1.15,2.28-2.5,4.46a51.26,51.26,0,0,1-3.62,5c-.42.52-.88,1-1.31,1.53-.82,1-1.74,1.86-2.64,2.76s-1.62,1.5-2.46,2.22-1.87,1.52-2.84,2.23a49.07,49.07,0,0,1-5.85,3.67c-1,.54-2,1-3,1.5s-2.34,1-3.54,1.43a48,48,0,0,1-5,1.51,46.63,46.63,0,0,1-5,1l-1.71.23a5.46,5.46,0,0,1-.57,0,4.38,4.38,0,0,0-.51,0,13.48,13.48,0,0,1-2,.12l-1.29.08a9.09,9.09,0,0,1-1.73,0c-.46-.05-.91-.06-1.37-.07A11.56,11.56,0,0,1,74.2,128a1.32,1.32,0,0,0-.28,0,15.05,15.05,0,0,1-2-.21c-1.31-.17-2.61-.38-3.91-.66s-2.75-.66-4.11-1.06a48.64,48.64,0,0,1-5.15-1.87,46.4,46.4,0,0,1-4.59-2.25c-1.43-.8-2.81-1.67-4.16-2.59-1.17-.8-2.29-1.67-3.4-2.56a55.12,55.12,0,0,1-5.4-5.19,41.06,41.06,0,0,1-3.21-4c-.9-1.25-1.75-2.53-2.53-3.85-.67-1.12-1.26-2.27-1.85-3.43a49,49,0,0,1-3.17-8.19c-.41-1.38-.74-2.78-1-4.2a32.72,32.72,0,0,1-.52-3.27c-.07-.62-.15-1.24-.22-1.86a4.38,4.38,0,0,1,0-.5,11.63,11.63,0,0,0-.11-1.44,3.69,3.69,0,0,1,0-.58c0-1.29,0-2.59,0-3.89,0-.93.09-1.87.21-2.8a2.66,2.66,0,0,0,0-.28,39.47,39.47,0,0,1,.65-4.49,48.63,48.63,0,0,1,1.8-6.75,45.26,45.26,0,0,1,1.69-4.22c.34-.74.68-1.49,1-2.21a48.69,48.69,0,0,1,3.57-5.92c.74-1,1.5-2.06,2.31-3,.48-.59,1-1.16,1.5-1.74.75-.85,1.55-1.65,2.35-2.44s1.59-1.47,2.41-2.17c1.09-.95,2.24-1.81,3.41-2.66a43.14,43.14,0,0,1,3.63-2.34c1.08-.63,2.17-1.24,3.3-1.78a50.67,50.67,0,0,1,8.34-3.19,47.09,47.09,0,0,1,4.7-1.09c.78-.14,1.56-.25,2.35-.36l2-.25.22,0c1.34,0,2.68-.22,4-.17h.36Zm-.08,1.43v0c-.22,0-.43,0-.65,0-1.27,0-2.54.13-3.81.18a2.85,2.85,0,0,0-.29,0c-.55.07-1.09.15-1.64.21a42.26,42.26,0,0,0-4.47.8,51.4,51.4,0,0,0-5.8,1.72q-2.3.85-4.51,1.92c-.75.36-1.49.77-2.23,1.17a44.31,44.31,0,0,0-5,3.2c-1,.69-1.89,1.4-2.78,2.18-.65.57-1.32,1.12-1.94,1.71a48.82,48.82,0,0,0-3.95,4.19c-1,1.17-1.89,2.37-2.75,3.62s-1.83,2.82-2.65,4.29a46.74,46.74,0,0,0-2.37,5c-.56,1.38-1.07,2.78-1.49,4.21s-.86,3.16-1.17,4.76A41.74,41.74,0,0,0,30,74.88a1.62,1.62,0,0,1,0,.22,9.94,9.94,0,0,0-.11,1.72v2.89A10.69,10.69,0,0,0,30,81.5a2.08,2.08,0,0,1,0,.43,22.33,22.33,0,0,0,.21,2.3c.08.78.23,1.57.36,2.35A45.65,45.65,0,0,0,32.17,93,48.84,48.84,0,0,0,34,97.86a51.11,51.11,0,0,0,2.7,5.26,48.19,48.19,0,0,0,3.82,5.5c.63.79,1.28,1.56,2,2.3.38.41.75.82,1.13,1.22s.64.65,1,1l1.21,1.12c.15.13.28.27.43.39,1,.81,1.91,1.61,2.91,2.36a48.92,48.92,0,0,0,6.49,4.15,45.25,45.25,0,0,0,4.17,2,49.27,49.27,0,0,0,6.35,2.12c1.56.4,3.14.74,4.73,1,1,.14,1.9.29,2.86.34l.36,0c.36,0,.71.07,1.07.09a14.22,14.22,0,0,1,1.73.1,2.07,2.07,0,0,0,.43,0h2a4.1,4.1,0,0,0,.5,0,12.08,12.08,0,0,1,1.58-.1c.24,0,.48,0,.72,0l2.08-.23c.93-.09,1.85-.24,2.78-.41a47.71,47.71,0,0,0,5.25-1.26c1.38-.42,2.74-.89,4.08-1.43A49.53,49.53,0,0,0,107,117.41a43.15,43.15,0,0,0,4.13-3.38,51.76,51.76,0,0,0,5.1-5.47,50.55,50.55,0,0,0,5.57-8.74c.21-.41.39-.83.58-1.24.29-.66.59-1.32.86-2A47.23,47.23,0,0,0,125,91.42a48.89,48.89,0,0,0,1.41-7c.07-.52.11-1.05.17-1.57s.1-1.3.13-1.94c0-.29,0-.58.06-.87s0-.52,0-.79c0-.6,0-1.2,0-1.8,0-.21,0-.43,0-.65a10.24,10.24,0,0,1-.08-1.36,23.37,23.37,0,0,0-.2-2.51c-.1-.91-.25-1.81-.39-2.71-.2-1.26-.46-2.51-.78-3.74q-.61-2.42-1.46-4.75c-.48-1.31-1-2.6-1.6-3.86s-1.08-2.2-1.68-3.27a49,49,0,0,0-3.5-5.37c-.66-.89-1.35-1.75-2.08-2.58s-1.58-1.81-2.44-2.65c-.41-.4-.86-.77-1.27-1.18-.77-.75-1.6-1.44-2.44-2.13-1.17-1-2.39-1.85-3.65-2.69-1-.63-1.94-1.25-3-1.81-1.39-.78-2.8-1.49-4.25-2.14a47.68,47.68,0,0,0-16.13-4,2.58,2.58,0,0,1-.29,0,7.74,7.74,0,0,0-1.44-.09C79.53,29.91,78.93,29.92,78.33,29.92Z"/><path class="cls-1" d="M74.14,115.54a5.58,5.58,0,0,1,2.32.45c.42.17.83.37,1.25.55a2.07,2.07,0,0,1,.25.15.2.2,0,0,1,0,.35l-.46.35a.18.18,0,0,0,0,.25l.66.43a.31.31,0,0,0,.21,0,2.91,2.91,0,0,0,.79-.49.17.17,0,0,0,0-.2l-.41-.29a.51.51,0,0,1-.13-.16s0-.11,0-.13a.63.63,0,0,1,.21-.19,9.25,9.25,0,0,1,1.5-.69,6.71,6.71,0,0,1,2.47-.4,4.37,4.37,0,0,1,2.25.69,7,7,0,0,1,1.18.93,18.11,18.11,0,0,0,1.63,1.53,9.23,9.23,0,0,0,3,1.65l1.38.43a.14.14,0,0,1,0,.19.43.43,0,0,1-.1.09c-.31.14-.61.3-.92.41a7.2,7.2,0,0,1-2,.42,5.19,5.19,0,0,1-3.53-1c-.56-.42-1.1-.86-1.65-1.29s-.93-.75-1.42-1.11a11.88,11.88,0,0,0-1-.68,2.43,2.43,0,0,0-1.8-.34.15.15,0,0,0-.09.1.12.12,0,0,0,0,.13,2.1,2.1,0,0,0,.33.26c.81.53,1.62,1,2.43,1.56l.28.22s0,.1,0,.13a.57.57,0,0,1-.18.12l-.47.17a1,1,0,0,0-.63.55c0,.09-.09.17-.13.26a.16.16,0,0,1-.2,0c-.18-.19-.38-.36-.55-.57a17.85,17.85,0,0,0-1.35-1.4c-.22-.21-.48-.4-.72-.59a.36.36,0,0,0-.47,0c-.17.14-.33.28-.48.43-.57.56-1.12,1.13-1.68,1.69l-.37.34a.2.2,0,0,1-.26,0l0,0a1.41,1.41,0,0,0-.92-.75.66.66,0,0,1-.38-.19s0-.11,0-.13.3-.24.46-.35L76.56,118a3,3,0,0,0,.33-.27.12.12,0,0,0,0-.13.15.15,0,0,0-.09-.1,2.2,2.2,0,0,0-1.34.12,6.12,6.12,0,0,0-1.18.7l-1.47,1.15-1.41,1.12c-.21.16-.43.32-.65.46a5.38,5.38,0,0,1-3.79.81,8.07,8.07,0,0,1-2.34-.69,1.83,1.83,0,0,1-.3-.18s0-.08,0-.13a.06.06,0,0,1,0,0c.18-.06.36-.13.55-.18a14.32,14.32,0,0,0,1.57-.5A9.34,9.34,0,0,0,69,118.5c.58-.5,1.14-1,1.68-1.57a4.88,4.88,0,0,1,2.3-1.29,3.07,3.07,0,0,1,.42-.07C73.66,115.55,73.9,115.55,74.14,115.54Z"/><path class="cls-1" d="M77.19,62.07h1.87a.66.66,0,0,1,.2.06s0,0,0,.06a.11.11,0,0,1,0,.06l-.2.08-.34.1a.43.43,0,0,0-.27.46,3.45,3.45,0,0,0,.17.63c.31.83.62,1.66.94,2.49.22.59.44,1.17.67,1.75,0,.11.11.21.16.32a.17.17,0,0,0,.25,0c0-.11.11-.21.16-.33.19-.49.37-1,.56-1.48s.45-1.16.67-1.75l.29-.81a2.44,2.44,0,0,0,.1-.71.59.59,0,0,0-.42-.61,1.15,1.15,0,0,1-.25-.12s0,0,0-.06a.09.09,0,0,1,0-.06l.06,0a11.67,11.67,0,0,1,1.87,0s.07,0,.11.07,0,.13-.06.18a1.55,1.55,0,0,0-.63.84c-.33.86-.67,1.71-1,2.56Q81,68.61,80,71.46c-.07.2-.1.48-.37.47s-.26-.26-.32-.43c-.33-.83-.64-1.66-1-2.49s-.7-1.84-1.06-2.76a.83.83,0,0,0-.15-.23S77,66,77,66a.45.45,0,0,0-.13.17l-.93,2.18c-.43,1-.85,2-1.29,3.06a3.68,3.68,0,0,1-.23.44c0,.1-.25.09-.31,0a6.1,6.1,0,0,1-.29-.57l-1.13-2.81-2-4.81c0-.13-.11-.26-.17-.39a2,2,0,0,0-.78-1s0,0,0-.06,0-.09.09-.1a.9.9,0,0,1,.28,0h3.1a.9.9,0,0,1,.28,0s.06.06.08.1,0,0,0,.06l-.25.13c-.29.16-.4.35-.32.64s.16.56.26.83l1,2.4c.24.61.48,1.21.73,1.81a1.33,1.33,0,0,0,.18.3c0,.06.16.05.19,0a1.13,1.13,0,0,0,.12-.18c.39-.93.76-1.86,1.16-2.79a1,1,0,0,0,0-.84c-.18-.44-.35-.89-.53-1.34a2.39,2.39,0,0,0-.16-.32,1.13,1.13,0,0,0-.72-.56.48.48,0,0,1-.19-.09s0,0,0,0A.09.09,0,0,1,75,62.1l.36,0h1.8Z"/><path class="cls-1" d="M56,62.07h2.09A5.64,5.64,0,0,1,60,62.4a4.17,4.17,0,0,1,2.29,1.88,5.15,5.15,0,0,1,.65,2,5.51,5.51,0,0,1-.32,2.61A4.1,4.1,0,0,1,60,71.48a7.19,7.19,0,0,1-2.26.38H53.91l-.43,0c-.1,0-.18-.08-.15-.12a.21.21,0,0,1,.1-.09l.35-.07a1.43,1.43,0,0,0,.27-.09.69.69,0,0,0,.38-.42,3.47,3.47,0,0,0,.11-.56,5.42,5.42,0,0,0,0-.57V64a4.21,4.21,0,0,0,0-.5,2.87,2.87,0,0,0-.07-.5.77.77,0,0,0-.67-.66c-.12,0-.24,0-.35-.06a.16.16,0,0,1-.09-.09s0-.1.08-.1a4,4,0,0,1,.5,0H56Zm.85,4.73v.51c0,1,0,1.92,0,2.88a3.45,3.45,0,0,0,0,.64.52.52,0,0,0,.37.4.8.8,0,0,0,.21,0,2.21,2.21,0,0,0,2-.74,2.68,2.68,0,0,0,.49-.79,4.46,4.46,0,0,0,.38-1.6,20.74,20.74,0,0,0,0-2.23,4.32,4.32,0,0,0-.81-2.35,2.31,2.31,0,0,0-2.36-.9.3.3,0,0,0-.24.24,4.73,4.73,0,0,0,0,.65C56.87,64.64,56.87,65.72,56.87,66.8Z"/><path class="cls-1" d="M95.38,67.46V70a2.78,2.78,0,0,0,.1.86.94.94,0,0,0,.57.61l.54.19s0,0,0,.06a.2.2,0,0,1-.06.11.52.52,0,0,1-.21,0q-1.26,0-2.52,0a.49.49,0,0,1-.21,0s-.06-.07-.07-.11,0,0,0,0,.32-.1.47-.15a1,1,0,0,0,.71-.84,2.19,2.19,0,0,0,0-.36c0-.22,0-.43,0-.65V63.81a1.26,1.26,0,0,0-.15-.76,1.57,1.57,0,0,0-.88-.7.69.69,0,0,1-.19-.1.11.11,0,0,1,0-.06s0-.06,0-.06a.51.51,0,0,1,.2-.06h2.67a.76.76,0,0,1,.68.33l1.66,2.09c.82,1,1.64,2.07,2.47,3.1a1.29,1.29,0,0,0,.21.19.12.12,0,0,0,.17-.07,1.35,1.35,0,0,0,0-.28V63.82a2.35,2.35,0,0,0-.12-.78,1,1,0,0,0-.7-.66c-.11,0-.23-.05-.34-.09s-.06-.08-.06-.11.06-.07.1-.09l.14,0h2.45a.33.33,0,0,1,.13,0s0,0,0,0,0,.11,0,.12-.31.11-.47.17a.83.83,0,0,0-.5.58,2,2,0,0,0-.07.42c0,.27,0,.53,0,.8V71c0,.24,0,.48,0,.72a.3.3,0,0,1-.08.2s-.14.08-.18.06a1.18,1.18,0,0,1-.28-.22L99.35,68.8l-2.81-3.48c-.15-.18-.29-.38-.45-.56s-.29-.31-.45-.46a.15.15,0,0,0-.13,0s-.09.06-.09.09a2.89,2.89,0,0,0,0,.5c0,.87,0,1.73,0,2.6Z"/><path class="cls-1" d="M95.37,112.39a2.83,2.83,0,0,1-.07.42,4.83,4.83,0,0,1-.47,1,8.42,8.42,0,0,1-2.67,2.77l-.42.28a.07.07,0,0,0,0,.07s0,.09.06.1l.56.14,1.13.22c1.13.24,2.23.57,3.33.92.37.11.73.24,1.09.37.06,0,.09.14,0,.18a.7.7,0,0,1-.16.14c-.17.09-.34.18-.52.26a7.83,7.83,0,0,1-1.77.59c-.21,0-.43.06-.64.08A6.72,6.72,0,0,1,91,119c-.51-.27-1-.56-1.5-.85l-1.77-1-.36-.23a.13.13,0,0,1,0-.19l.12-.08a9.64,9.64,0,0,0,2.23-1.43c.4-.32.81-.61,1.21-.91a4.32,4.32,0,0,1,1.29-.64l1.36-.45a4.89,4.89,0,0,0,1.49-.72,1.55,1.55,0,0,1,.32-.14Z"/><path class="cls-1" d="M62.35,119.93a7,7,0,0,1-3.49-1l-.06,0a.16.16,0,0,1,0-.24,2.33,2.33,0,0,1,.33-.14c1.1-.32,2.21-.66,3.32-1,.6-.16,1.22-.26,1.83-.39l.55-.15c.06,0,.08-.14,0-.18a1.84,1.84,0,0,0-.22-.17,8.76,8.76,0,0,1-2.5-2.35,7.44,7.44,0,0,1-.87-1.65c0-.09,0-.18,0-.2a.19.19,0,0,1,.19,0,6.8,6.8,0,0,0,2,.91c.32.1.65.19,1,.3a5.83,5.83,0,0,1,1.65.88l1,.79A10.11,10.11,0,0,0,69,116.61a1.25,1.25,0,0,1,.24.16.14.14,0,0,1,0,.19l-.23.17c-.85.49-1.7,1-2.56,1.46-.44.25-.89.48-1.34.7a6.29,6.29,0,0,1-1.64.53C63.11,119.88,62.73,119.89,62.35,119.93Z"/><path class="cls-1" d="M46.54,107.36a12.1,12.1,0,0,1-2.08-.19,6.91,6.91,0,0,1-1.58-.5,8.48,8.48,0,0,1-2.25-1.4A6.16,6.16,0,0,1,39.5,104a4,4,0,0,1-.59-1.75.15.15,0,0,1,0-.07A.21.21,0,0,1,39,102a.19.19,0,0,1,.13,0,.57.57,0,0,1,.18.12A10.62,10.62,0,0,0,42,103.69c.93.41,1.86.8,2.79,1.19a.73.73,0,0,0,.2.05c.07,0,.15-.06.15-.13a1.88,1.88,0,0,0-.19-.61,29.2,29.2,0,0,1-1-3.38,5.06,5.06,0,0,1-.14-1.5,1.43,1.43,0,0,1,.07-.28.21.21,0,0,1,.18-.09.74.74,0,0,1,.21.07,4.42,4.42,0,0,1,2.08,2.65,13.64,13.64,0,0,1,.31,1.41,16.25,16.25,0,0,0,1.06,3.59c0,.06.05.13.08.2.13.36,0,.49-.33.5S46.83,107.36,46.54,107.36Z"/><path class="cls-1" d="M110.16,107.36h-.86a1.52,1.52,0,0,1-.21,0,.25.25,0,0,1-.21-.26l0-.14.12-.33a16.91,16.91,0,0,0,1-3.52c.06-.33.12-.67.19-1a4.94,4.94,0,0,1,.57-1.48,5.37,5.37,0,0,1,1.62-1.6,1.21,1.21,0,0,1,.2-.09.23.23,0,0,1,.24.12.89.89,0,0,1,.06.2,4.29,4.29,0,0,1,0,.72,11.75,11.75,0,0,1-.26,1.34,24.91,24.91,0,0,1-.75,2.41c-.12.34-.22.68-.33,1,0,.08.1.19.18.16s.36-.12.54-.2c.82-.34,1.63-.7,2.46-1a10.88,10.88,0,0,0,2.43-1.4c.11-.08.24-.15.36-.22a.16.16,0,0,1,.12,0,.21.21,0,0,1,0,.13,4,4,0,0,1,0,.5,3.84,3.84,0,0,1-.78,1.61,8.09,8.09,0,0,1-4.52,2.78A9.21,9.21,0,0,1,110.16,107.36Z"/><path class="cls-1" d="M53.16,114.85a7.49,7.49,0,0,1-1.5-.16,4.58,4.58,0,0,1-2-.91A6.6,6.6,0,0,1,48,111.9s0-.08,0-.12l.07,0,1.12.26a2,2,0,0,0,.42.06c.65,0,1.29.12,1.94.18.48,0,1,.13,1.42.2s.71.13,1.07.18a1.31,1.31,0,0,0,.28,0c.06,0,.13-.12.11-.17a1.11,1.11,0,0,0-.09-.19l-.93-1.1a9.19,9.19,0,0,1-1.38-2.1,6.54,6.54,0,0,1-.47-1.5.72.72,0,0,1,0-.29s.08-.08.11-.07a.82.82,0,0,1,.27.06,15.6,15.6,0,0,1,1.79,1.21l.28.22a6.52,6.52,0,0,1,2,2.68A13.45,13.45,0,0,0,57.45,114l.08.12c.16.26.09.41-.21.44l-2.58.17-.5.05Z"/><path class="cls-1" d="M103.47,114.85l-1.15-.1-.57,0-1.22-.1-.57,0-.58,0c-.38,0-.45-.12-.25-.42l.24-.36.31-.48a9.67,9.67,0,0,0,.84-1.67,5.85,5.85,0,0,1,.5-1,7.43,7.43,0,0,1,1.92-2.11,14.25,14.25,0,0,1,1.86-1.23.48.48,0,0,1,.2,0s.08,0,.11.08a.17.17,0,0,1,0,.07,4.93,4.93,0,0,1-.3,1.26,7.77,7.77,0,0,1-1.21,2.11l-.93,1.1a2.6,2.6,0,0,0-.49.7s0,.11,0,.11a.67.67,0,0,0,.28,0l2-.31a20.63,20.63,0,0,1,2.22-.24,7.51,7.51,0,0,0,1.48-.25l.35-.07s.06,0,.06,0,0,.1,0,.13a10.52,10.52,0,0,1-.63.86c-.24.28-.5.52-.76.77a4.27,4.27,0,0,1-2.15,1.1A9,9,0,0,1,103.47,114.85Z"/><path class="cls-1" d="M90.65,71.86H88.92a2.27,2.27,0,0,1-.35,0s0-.07-.06-.11,0,0,0-.06l.48-.12a.53.53,0,0,0,.37-.68,8.91,8.91,0,0,0-.65-1.52.53.53,0,0,0-.4-.28l-.29,0H85.84l-.28,0a.5.5,0,0,0-.41.26,4.6,4.6,0,0,0-.52,1.33.72.72,0,0,0,.45.82l.48.14c.08,0,.13.1.11.15a.17.17,0,0,1-.17.1H83.05a.2.2,0,0,1-.13,0,.23.23,0,0,1-.08-.11s0,0,0-.06a1.24,1.24,0,0,1,.23-.17,2.07,2.07,0,0,0,.82-.89c.14-.28.28-.55.41-.84l1.8-4,1.47-3.29.12-.26c0-.09.18-.17.23-.14a.4.4,0,0,1,.16.13,3.13,3.13,0,0,1,.15.32c.53,1.19,1,2.37,1.57,3.56l1.68,3.82c.15.33.32.65.49,1a1.58,1.58,0,0,0,.82.77.23.23,0,0,1,.08.11c0,.05-.08.12-.15.13l-.29,0Zm-3.73-3.32h.57l.5,0a.27.27,0,0,0,.25-.35c0-.16-.1-.32-.16-.48l-.7-1.57c-.06-.15-.13-.3-.2-.45a.39.39,0,0,0-.06-.13.45.45,0,0,0-.17-.11s-.09,0-.11.08l-1.17,2.61a.58.58,0,0,0,0,.14.26.26,0,0,0,.14.23l.28.05Z"/><path class="cls-1" d="M99.35,118a12.06,12.06,0,0,1-2.07-.2c-.83-.13-1.66-.29-2.49-.43-.21,0-.43-.06-.64-.09l-.21,0a.19.19,0,0,1-.12-.28l.22-.29a14.17,14.17,0,0,0,1.55-2.34,6.57,6.57,0,0,1,2-2.33,15.23,15.23,0,0,1,2.57-1.47,1.17,1.17,0,0,1,.2,0,.15.15,0,0,1,.14.14c0,.12,0,.24-.06.35a6.7,6.7,0,0,1-1.08,2.11,12.3,12.3,0,0,1-1.68,1.78,2.48,2.48,0,0,0-.55.57.27.27,0,0,0,0,.13c0,.06.08.12.15.13a1.7,1.7,0,0,0,.22,0l.43,0c.33,0,.67-.07,1-.07.84,0,1.69,0,2.53,0a10.33,10.33,0,0,0,2-.18s.09,0,.13,0a.06.06,0,0,1,0,.07.2.2,0,0,1,0,.13,6.78,6.78,0,0,1-2.05,1.79A5.06,5.06,0,0,1,99.35,118Z"/><path class="cls-1" d="M51.83,111.52h-.18c-1.22-.16-2.44-.22-3.64-.45a11.48,11.48,0,0,1-2-.55,5.32,5.32,0,0,1-2.09-1.37,3.93,3.93,0,0,1-.91-1.69c0-.08.09-.19.18-.17a1.66,1.66,0,0,1,.21.06c.76.23,1.51.47,2.27.69A16.12,16.12,0,0,1,49,109.28a.5.5,0,0,0,.2.08.2.2,0,0,0,.12-.06s0,0,0-.06a2.15,2.15,0,0,0-.1-.27c-.25-.55-.5-1.09-.76-1.63s-.39-.93-.56-1.4a7.53,7.53,0,0,1-.3-1.41,1.6,1.6,0,0,1,.15-.91.25.25,0,0,1,.25-.09.59.59,0,0,1,.19.11,8.37,8.37,0,0,1,2,2.27,7.73,7.73,0,0,1,.68,1.66c.11.39.19.79.3,1.18s.27.88.4,1.31a7.67,7.67,0,0,0,.62,1.21c.05.08,0,.21-.12.23h-.17Z"/><path class="cls-1" d="M109.09,104.39a4.83,4.83,0,0,1-.12.93,8.1,8.1,0,0,1-.54,1.57l-.91,2a3.2,3.2,0,0,0-.16.39s0,.09,0,.13l.06,0,.13,0a10.46,10.46,0,0,1,1.92-.82c.76-.25,1.52-.47,2.28-.7l1.37-.43.27-.08c.12,0,.23.1.2.22a1.6,1.6,0,0,1,0,.21,4,4,0,0,1-1.31,1.86,6.41,6.41,0,0,1-2.3,1.16,14.61,14.61,0,0,1-2.54.49l-2,.23c-.26,0-.52,0-.79,0a.16.16,0,0,1-.11-.22,7.63,7.63,0,0,0,1.1-2.8l.18-.69a7.68,7.68,0,0,1,1.56-3.06,7,7,0,0,1,1.32-1.22.19.19,0,0,1,.29.09.86.86,0,0,1,.07.21C109.06,104,109.07,104.2,109.09,104.39Z"/><path class="cls-1" d="M54.49,115.59a19,19,0,0,0,3-.22l1.36-.18.35-.08a.19.19,0,0,0,.11-.23,1.76,1.76,0,0,0-.4-.5A18.39,18.39,0,0,1,57.68,113a6.68,6.68,0,0,1-1.07-1.7,2.93,2.93,0,0,1-.27-.82.22.22,0,0,1,.21-.23l.15,0a7.68,7.68,0,0,1,2.52,1.19,6.54,6.54,0,0,1,1.77,2,9.48,9.48,0,0,0,.82,1.27c.24.3.49.59.74.88l.49.62a.18.18,0,0,1-.07.25,2.75,2.75,0,0,1-.41.11,8.23,8.23,0,0,0-2.22.61q-.54.21-1.08.39a4.26,4.26,0,0,1-3.1-.17,10.88,10.88,0,0,1-2.1-1.25c-.19-.14-.38-.29-.56-.45,0,0,0-.08,0-.12s0,0,.06,0Z"/><path class="cls-1" d="M36.44,96.59a.47.47,0,0,1,.12.07,4.76,4.76,0,0,0,1.67,1.45c.12.07.24.16.37.22a17,17,0,0,1,2.57,1.73,1,1,0,0,0,.18.1s.06,0,.07,0a.23.23,0,0,0,.07-.11,3.37,3.37,0,0,0-.1-.34c-.22-.66-.46-1.32-.67-2a5.38,5.38,0,0,1-.26-2,1.86,1.86,0,0,1,.14-.7.21.21,0,0,1,.24-.1L41,95a4.31,4.31,0,0,1,1.5,2.24c.14.51.25,1,.35,1.54s.18,1.14.27,1.71a9.54,9.54,0,0,0,.7,2.56.33.33,0,0,1,0,.14.16.16,0,0,1-.18.16l-.14,0a26.3,26.3,0,0,1-3.9-1.67,8,8,0,0,1-2-1.51,4.86,4.86,0,0,1-1.28-2.53,2.25,2.25,0,0,1-.05-1S36.4,96.61,36.44,96.59Z"/><path class="cls-1" d="M116.14,96.06a4.62,4.62,0,0,1-.27,1.91c-.19.57-.39,1.13-.58,1.7,0,.11-.07.23-.1.34s0,.06,0,.07.09,0,.12,0a1.57,1.57,0,0,0,.31-.18,22.69,22.69,0,0,1,2.64-1.74c.32-.18.61-.4.91-.6a4.6,4.6,0,0,0,1-1h.06a.07.07,0,0,1,.06,0,.09.09,0,0,1,0,.06,3.91,3.91,0,0,1-.47,2.3,5.34,5.34,0,0,1-1.46,1.75,12.27,12.27,0,0,1-2.53,1.51c-.86.38-1.73.72-2.62,1a2,2,0,0,1-.35,0s-.08-.06-.08-.09a.37.37,0,0,1,0-.21,9.69,9.69,0,0,0,.72-2.63c.1-.64.19-1.28.29-1.92a11,11,0,0,1,.35-1.4,4.61,4.61,0,0,1,.89-1.55,2.72,2.72,0,0,1,.65-.57l.13,0a.2.2,0,0,1,.23.13,1.26,1.26,0,0,1,0,.28C116.15,95.58,116.14,95.82,116.14,96.06Z"/><path class="cls-1" d="M66.43,71.86H64.56a1.49,1.49,0,0,1-.36,0s0-.07-.06-.11,0,0,0,0l.41-.1a.76.76,0,0,0,.64-.76,5.43,5.43,0,0,0,0-.57c0-.87,0-1.73,0-2.59,0-1.3,0-2.59,0-3.89,0-.24,0-.48,0-.72a.69.69,0,0,0-.52-.62c-.18-.06-.36-.09-.55-.14a.11.11,0,0,1,0-.06s0-.05,0-.06a.38.38,0,0,1,.13-.06l.44,0h3.52a1,1,0,0,1,.49.06s.05,0,0,.05,0,.11,0,.11-.33.07-.49.11a.73.73,0,0,0-.51.55,2.18,2.18,0,0,0,0,.5c0,.39,0,.77,0,1.16,0,1.82,0,3.64,0,5.46,0,.24,0,.48,0,.72a.82.82,0,0,0,.64.77l.42.1s0,0,0,.06,0,.1-.07.1a2,2,0,0,1-.42,0Z"/><path class="cls-1" d="M42.46,78s-.06.09-.1.11a.7.7,0,0,0-.47.72c0,.08,0,.15,0,.22v4.32c0,.58,0,.61.58,1a.07.07,0,0,1-.07.1H39.8a.07.07,0,0,1-.08-.09.07.07,0,0,1,0,0l.25-.14a.53.53,0,0,0,.26-.41,1.33,1.33,0,0,0,0-.28V79.1a.33.33,0,0,0,0-.13s0,0,0,0l-.06,0c-.12.24-.24.47-.35.71-.58,1.37-1.15,2.75-1.73,4.12-.07.15-.16.29-.24.43s-.16,0-.2,0a1.88,1.88,0,0,1-.14-.24c-.62-1.44-1.23-2.87-1.85-4.3-.1-.24-.23-.47-.35-.71a.11.11,0,0,0-.06,0,.09.09,0,0,0-.1.09c0,.12,0,.24,0,.36v3.53a5.43,5.43,0,0,0,0,.57.81.81,0,0,0,.46.69,1.88,1.88,0,0,1,.23.16s0,0,0,.06a.07.07,0,0,1-.06,0H34.17a.07.07,0,0,1-.06,0s0-.09,0-.11a1,1,0,0,0,.66-1.08v-2c0-.65,0-1.3,0-1.94v-.44a.75.75,0,0,0-.5-.79.07.07,0,0,1,0,0,.07.07,0,0,1,.08-.09h1.8l.14,0a.45.45,0,0,1,.35.22,2.77,2.77,0,0,1,.22.46c.44,1,.87,2,1.31,3a1.14,1.14,0,0,0,.1.19.15.15,0,0,0,.12.05.17.17,0,0,0,.12-.07,1.14,1.14,0,0,0,.1-.19l.26-.59c.35-.85.7-1.69,1-2.54a.8.8,0,0,1,.86-.6c.51,0,1,0,1.52,0A.84.84,0,0,1,42.46,78Z"/><path class="cls-1" d="M66.53,78l-.18.1a.61.61,0,0,0-.36.51,3,3,0,0,0,0,.43v4.18c0,.09,0,.19,0,.28a.68.68,0,0,0,.44.69.79.79,0,0,1,.15.12s-.09.07-.13.07l-2.59,0s0,0-.05,0,.23-.15.34-.24a.6.6,0,0,0,.22-.36,3,3,0,0,0,0-.43c0-1.37,0-2.73,0-4.1a.94.94,0,0,0-.06-.28s-.06,0-.06,0a1.05,1.05,0,0,0-.15.24c-.25.58-.5,1.15-.74,1.73l-1.26,3a2.1,2.1,0,0,1-.13.26.19.19,0,0,1-.18.1.21.21,0,0,1-.11-.08,1.08,1.08,0,0,1-.11-.18l-1-2.26c-.33-.77-.66-1.54-1-2.31a2.4,2.4,0,0,0-.21-.38s0,0-.06,0a.21.21,0,0,0-.11.07.78.78,0,0,0,0,.21v3.82a2.19,2.19,0,0,0,0,.36.85.85,0,0,0,.45.69,1.3,1.3,0,0,1,.23.15s0,0,0,.06a.07.07,0,0,1-.06,0H58.39a.14.14,0,0,1-.1-.08.17.17,0,0,1,.06-.11,1.13,1.13,0,0,1,.18-.12.83.83,0,0,0,.32-.55,3.63,3.63,0,0,0,0-.57c0-1.28,0-2.55,0-3.82a4.1,4.1,0,0,0,0-.5.61.61,0,0,0-.34-.52L58.34,78c0-.07,0-.11.06-.11h1.8a.62.62,0,0,1,.61.42c.16.38.32.75.49,1.12l.93,2.19c0,.09.09.16.14.25a.13.13,0,0,0,.19,0c.09-.2.19-.39.27-.59.37-.88.74-1.77,1.1-2.66.07-.16.14-.31.22-.46a.45.45,0,0,1,.35-.22h.07A9.26,9.26,0,0,1,66.53,78Z"/><path class="cls-1" d="M121.58,89.13A10.4,10.4,0,0,1,120,94.56a16.22,16.22,0,0,1-2.18,2.77l-1.18,1.16a.7.7,0,0,1-.17.13.15.15,0,0,1-.21-.11,5.61,5.61,0,0,1,0-.71,16.38,16.38,0,0,1,.66-2.87,15.51,15.51,0,0,1,1.45-3.05c.54-.91,1.11-1.8,1.57-2.75A21.93,21.93,0,0,0,121,87a.55.55,0,0,1,.13-.17s.1,0,.12,0a1,1,0,0,1,.14.54C121.47,88.05,121.54,88.72,121.58,89.13Z"/><path class="cls-1" d="M40.42,98.39a1.49,1.49,0,0,0,0,.17c0,.06-.12.12-.17.08a1.24,1.24,0,0,1-.23-.17c-.61-.61-1.24-1.21-1.82-1.84a12.7,12.7,0,0,1-1.81-2.51,10.1,10.1,0,0,1-1-7,1.38,1.38,0,0,1,.08-.27.14.14,0,0,1,.11-.07.15.15,0,0,1,.11.08,3.09,3.09,0,0,1,.14.32c.29.75.65,1.45,1,2.16s.87,1.5,1.3,2.25l.37.62a13.69,13.69,0,0,1,1.79,4.83C40.31,97.51,40.36,98,40.42,98.39Z"/><path class="cls-1" d="M54.44,84.32a.91.91,0,0,1,.17-.09.7.7,0,0,0,.47-.59,4,4,0,0,0,.05-.5V82c0-.08,0-.15,0-.22,0-.34-.17-.49-.49-.5s-.91,0-1.37,0h-.07a.37.37,0,0,0-.34.32,1.52,1.52,0,0,0,0,.21v1.66a1.49,1.49,0,0,0,0,.21.63.63,0,0,0,.29.48c.09.06.23.06.28.19a.31.31,0,0,1-.12.05c-.6,0-2.26,0-2.73,0a.07.07,0,0,1,0-.11.82.82,0,0,0,.64-.92v-4a5.69,5.69,0,0,0,0-.72.66.66,0,0,0-.39-.57c-.06,0-.14,0-.11-.16l.27,0h2.31a.31.31,0,0,1,.12,0c0,.12-.15.09-.23.13a.54.54,0,0,0-.33.44,4.35,4.35,0,0,0,0,.51q0,.54,0,1.08c0,.12,0,.24,0,.36a.36.36,0,0,0,.28.29h1.66a.35.35,0,0,0,.3-.27,7.41,7.41,0,0,0,0-1.94.58.58,0,0,0-.45-.51.77.77,0,0,1-.19-.08c.11-.11.24-.08.35-.08a16.29,16.29,0,0,1,2.52,0c0,.15-.2.1-.3.17a.49.49,0,0,0-.25.33,3.13,3.13,0,0,0,0,.43v4.47c0,.09,0,.19,0,.29a.64.64,0,0,0,.34.52l.24.12s0,.08,0,.08c-.86.07-1.73,0-2.59,0C54.61,84.41,54.5,84.44,54.44,84.32Z"/><path class="cls-1" d="M84.57,84.36a18.46,18.46,0,0,1-2.72,0s0-.08,0-.11l.19-.1a.63.63,0,0,0,.35-.58c0-.15,0-.29,0-.44v-4c0-.17,0-.34,0-.5a.62.62,0,0,0-.38-.57l-.18-.1s0-.06,0-.06c.84-.09,1.68,0,2.52,0a.82.82,0,0,1,.19.06C84,78.37,84,78.33,84,79c0,.38,0,.76,0,1.15a2,2,0,0,0,0,.35.34.34,0,0,0,.24.25h.08c.52,0,1.05,0,1.58,0a.35.35,0,0,0,.34-.32,1.49,1.49,0,0,0,0-.21V78.83a.72.72,0,0,0-.52-.77s0,0,0,0,0-.05,0-.06a19.32,19.32,0,0,1,2.65,0s0,.07,0,.1l-.2.09a.62.62,0,0,0-.31.47,4.07,4.07,0,0,0,0,.5v4.11a.66.66,0,0,1,0,.14.83.83,0,0,0,.55.91s0,0,0,0l-.09.08H85.85a.37.37,0,0,1-.14,0c0-.13.11-.14.19-.18a.61.61,0,0,0,.38-.56c0-.65,0-1.3,0-2,0,0,0,0,0-.07a.35.35,0,0,0-.33-.32q-.8,0-1.59,0a.35.35,0,0,0-.34.31s0,0,0,.08c0,.64,0,1.29,0,1.94a.62.62,0,0,0,.38.57l.18.11S84.57,84.33,84.57,84.36Z"/><path class="cls-1" d="M98.26,84.34s0,0,0,0H96.58a.08.08,0,0,1-.07,0,.08.08,0,0,1,0-.12,1,1,0,0,0,.59-1V79a.9.9,0,0,0-.39-.8c-.06,0-.13-.08-.18-.13a.24.24,0,0,1,0-.12s0,0,.06,0h1.65a.63.63,0,0,1,.5.25c.38.46.76.93,1.13,1.4l1.53,1.91a.51.51,0,0,0,.16.13.13.13,0,0,0,.12,0,1.37,1.37,0,0,0,0-.28V79.12a.66.66,0,0,0,0-.14.87.87,0,0,0-.51-.88.36.36,0,0,1-.07-.1s0,0,0,0a6.87,6.87,0,0,1,1.36,0s.06,0,.06,0,0,.09,0,.12a1,1,0,0,1-.16.13.65.65,0,0,0-.24.44q0,.36,0,.72v4.17c0,.19,0,.38,0,.58a.34.34,0,0,1,0,.14.47.47,0,0,1-.14.14s-.1,0-.13,0c-.22-.25-.45-.5-.66-.76-.64-.78-1.26-1.57-1.89-2.35l-1.46-1.78c-.06-.06-.17-.08-.2,0l-.07.12a.71.71,0,0,0,0,.14,1.7,1.7,0,0,0,0,.22V83a4.32,4.32,0,0,0,0,.5.77.77,0,0,0,.37.59C98,84.18,98.2,84.18,98.26,84.34Z"/><path class="cls-1" d="M110,54.28l-.8-.07-.72-.07-1.15-.1-.64,0a.65.65,0,0,0-.6.34l-.55.92-1.19,2c-.06.1-.14.19-.21.29s-.16,0-.18,0-.07-.18-.09-.27c-.18-1-.37-1.94-.55-2.9,0-.14,0-.29-.08-.43a.57.57,0,0,0-.48-.48l-.7-.14-2.55-.46a2.8,2.8,0,0,1-.41-.13l0,0c0-.05,0-.11,0-.13a4.38,4.38,0,0,1,.42-.28l2.6-1.54a3.75,3.75,0,0,0,.36-.24.39.39,0,0,0,.17-.37c-.09-.7,0-1.4-.17-2.09a2,2,0,0,1,0-.43,9.74,9.74,0,0,0-.12-1.43,2.2,2.2,0,0,1,0-.36.07.07,0,0,1,0,0s.11,0,.14,0a3.8,3.8,0,0,1,.37.33L105,48.18a3.91,3.91,0,0,0,.44.37.37.37,0,0,0,.27.05,5,5,0,0,0,.6-.24l3-1.33.27-.09a.17.17,0,0,1,.13.05.28.28,0,0,1,0,.13,1.18,1.18,0,0,1-.07.2c-.27.59-.54,1.18-.8,1.77l-.75,1.64a.83.83,0,0,0-.06.21.49.49,0,0,0,.06.27,3.88,3.88,0,0,0,.39.42l2.19,2.2a1.42,1.42,0,0,1,.2.28s0,.1,0,.12a.21.21,0,0,1-.13.05Zm-.68-.42.48,0c.09,0,.14-.16.08-.23s-.18-.22-.28-.32l-1.42-1.43a5.33,5.33,0,0,1-.4-.42.51.51,0,0,1-.11-.53c.08-.23.17-.45.27-.67.3-.68.62-1.35.92-2,.06-.13.1-.27.15-.4s-.07-.16-.13-.15a1.6,1.6,0,0,0-.21.05l-1.44.65-1.52.66a.37.37,0,0,1-.4-.06,3.88,3.88,0,0,1-.42-.39l-1.69-1.68a1.42,1.42,0,0,0-.28-.2.11.11,0,0,0-.12,0,.49.49,0,0,0,0,.2c0,.34.08.67.1,1a12.46,12.46,0,0,0,.11,1.36c0,.28,0,.57,0,.86a.65.65,0,0,1-.38.64l-.06,0-1.55.92-.74.45a.71.71,0,0,0-.18.12.18.18,0,0,0,0,.12.16.16,0,0,0,.08.1l2.33.46c.26,0,.52.12.77.18a.41.41,0,0,1,.25.25.84.84,0,0,1,.08.27c.11.54.21,1.08.31,1.62.06.31.11.62.17.92a1.72,1.72,0,0,0,.07.21c0,.07.11.14.16.12s.1,0,.12-.07c.22-.36.44-.74.67-1.1.31-.52.62-1,.94-1.54a.47.47,0,0,1,.43-.21h.07c.74.09,1.49,0,2.22.18A4.86,4.86,0,0,0,109.33,53.86Z"/><path class="cls-1" d="M76.32,84.4H74.67a.07.07,0,0,1-.08-.09.07.07,0,0,1,0-.06.07.07,0,0,1,.06,0,.91.91,0,0,0,.61-.89,4.18,4.18,0,0,0,0-.5V79.43c0-.12,0-.24,0-.36a1,1,0,0,0-.35-.76l-.34-.26a.08.08,0,0,1,0-.07s0,0,0,0h1.72a.57.57,0,0,1,.44.22l1.09,1.34c.45.57.89,1.13,1.35,1.69a1.05,1.05,0,0,0,.4.41.13.13,0,0,0,.11,0,.49.49,0,0,0,0-.21c0-.77,0-1.53,0-2.3,0,0,0-.1,0-.15a.78.78,0,0,0-.5-.79s0-.07-.08-.11a.31.31,0,0,1,.12,0c.45,0,.91,0,1.36,0,0,0,.07,0,.1.08a.14.14,0,0,1,0,0l-.19.1a.66.66,0,0,0-.33.53c0,.23,0,.48,0,.72v4.25c0,.21,0,.43,0,.64a.16.16,0,0,1-.23.09,1.89,1.89,0,0,1-.2-.2l-1-1.23-2.67-3.31a.58.58,0,0,0-.27-.22.13.13,0,0,0-.12,0,.19.19,0,0,0,0,.13c0,.12,0,.24,0,.36v3a4.1,4.1,0,0,0,0,.5.87.87,0,0,0,.49.75l.23.14Z"/><path class="cls-1" d="M95.38,38.83a16.55,16.55,0,0,1-.11,1.72,7.34,7.34,0,0,0,0,.94.51.51,0,0,0,.29.46l.46.21,2.79,1.18a1.33,1.33,0,0,1,.3.18c.06,0,0,.16,0,.19a3.31,3.31,0,0,1-.33.15l-2.4.77-1.23.4a.47.47,0,0,0-.32.36,5.05,5.05,0,0,0-.12.56l-.48,3.21a.2.2,0,0,1-.06.12s-.1,0-.12,0a1.48,1.48,0,0,1-.24-.26l-1.59-2.49a5,5,0,0,0-.34-.46.43.43,0,0,0-.38-.17L91,46l-2.82.57a3.13,3.13,0,0,1-.43,0s-.12-.12-.09-.17a3.66,3.66,0,0,1,.26-.42L89.46,44c.15-.19.29-.38.43-.58a.48.48,0,0,0,0-.54c-.09-.19-.18-.39-.28-.58-.46-.93-.93-1.85-1.39-2.77-.06-.13-.09-.27-.14-.4s.07-.14.14-.14a2.73,2.73,0,0,1,.68.23l2.59,1.09a2,2,0,0,0,.41.14.4.4,0,0,0,.4-.1l.25-.26,2.35-2.43a1.19,1.19,0,0,1,.23-.16s.17,0,.17.08a2.2,2.2,0,0,1,0,.36Zm-.45,1.28h0c0-.57,0-1.15,0-1.72a.16.16,0,0,0-.07-.11.17.17,0,0,0-.14,0,6.88,6.88,0,0,0-.81.81c-.47.51-1,1-1.43,1.52l-.11.09a.46.46,0,0,1-.47.11l-.67-.26-1.92-.81a2.24,2.24,0,0,0-.34-.11c-.08,0-.21.1-.18.18a4.47,4.47,0,0,0,.19.46c.36.71.72,1.41,1.09,2.11.09.19.18.39.26.59a.32.32,0,0,1,0,.34c-.14.22-.3.43-.46.65L88.6,45.68a1.58,1.58,0,0,0-.15.24s0,.09,0,.13a.07.07,0,0,0,.06,0A5.54,5.54,0,0,0,89.1,46c.71-.13,1.41-.28,2.12-.42.12,0,.23-.05.35-.06a.44.44,0,0,1,.45.17c.15.19.28.39.41.59l1,1.57.2.3c.08.11.2.19.23.14a.92.92,0,0,0,.13-.24.94.94,0,0,0,.06-.28l.33-2.28a3.2,3.2,0,0,1,.1-.42.47.47,0,0,1,.28-.3c.39-.14.77-.27,1.16-.39l1.79-.57.33-.12c.08,0,.16-.12.14-.15a.36.36,0,0,0-.1-.11l-.71-.33-1.79-.75c-.14-.06-.27-.11-.4-.18a.42.42,0,0,1-.23-.34,3.11,3.11,0,0,1,0-.43Z"/><path class="cls-1" d="M57.48,43.57a.93.93,0,0,1,.15-.13l1.59-.68,1.46-.61.39-.2a.5.5,0,0,0,.29-.46c0-1.13,0-2.25-.08-3.38a1.89,1.89,0,0,1,0-.71c0-.06.13-.11.18-.07a.54.54,0,0,1,.12.09L63.1,39l1.09,1.14a.75.75,0,0,0,.17.14.47.47,0,0,0,.47.08l.4-.16L68.15,39a1.29,1.29,0,0,1,.28-.08c.06,0,.15.07.13.13s-.11.32-.18.47c-.46.92-.93,1.84-1.39,2.77a6.21,6.21,0,0,0-.26.59.45.45,0,0,0,0,.42c.13.2.26.4.41.59L68.77,46a3.17,3.17,0,0,1,.23.36c0,.07,0,.22-.11.21a2.17,2.17,0,0,1-.36,0L65.78,46l-.42-.08a.59.59,0,0,0-.63.26l-.51.78-1.44,2.24a.23.23,0,0,1-.11.09s-.11,0-.12,0a2,2,0,0,1-.18-.69c-.14-1-.31-1.94-.43-2.91a.8.8,0,0,0-.65-.75c-1.06-.32-2.11-.66-3.16-1a6.19,6.19,0,0,1-.6-.23S57.5,43.63,57.48,43.57Zm10.58,2.55.17,0s0-.14,0-.2L68,45.58l-1.4-1.83c-.42-.56-.42-.6-.11-1.24s.74-1.46,1.1-2.19c.09-.17.17-.34.25-.52s0-.18,0-.19a.36.36,0,0,0-.14,0l-.8.32c-.65.27-1.29.53-1.93.82a.69.69,0,0,1-.89-.2c-.09-.11-.2-.21-.3-.32l-1.56-1.59a2.89,2.89,0,0,0-.32-.29.15.15,0,0,0-.13,0,.13.13,0,0,0-.09.1,5.07,5.07,0,0,0,0,1.29,14.31,14.31,0,0,1,.08,1.73,1.48,1.48,0,0,1,0,.21.55.55,0,0,1-.32.53L61,42.4l-2.19.93a2,2,0,0,0-.25.14s-.06.16,0,.18a1.15,1.15,0,0,0,.25.12l2.61.84.54.21a.4.4,0,0,1,.22.27,1.27,1.27,0,0,1,.06.28L62.5,47c0,.36.11.71.17,1.07a.33.33,0,0,0,.13.16c.05.05.17,0,.24-.1a.76.76,0,0,0,.08-.11c.08-.12.17-.24.24-.36l.93-1.46c.12-.18.25-.36.38-.53a.42.42,0,0,1,.38-.15,1.45,1.45,0,0,1,.29,0l1.27.26Z"/><path class="cls-1" d="M46.93,46.93a1.87,1.87,0,0,1,.75.23l2.88,1.31c.51.22.58.21,1-.16l2.09-2.08a5.11,5.11,0,0,1,.42-.39.17.17,0,0,1,.14,0,.29.29,0,0,1,.09.1.22.22,0,0,1,0,.14c0,.45,0,.91-.06,1.36s-.06.63-.09.94-.05.67-.09,1a3,3,0,0,0,0,.79.45.45,0,0,0,.18.3c.11.09.24.16.36.24l2.59,1.55.31.19c.08,0,.13.15.09.18a.45.45,0,0,1-.16.12,2.13,2.13,0,0,1-.42.1c-.8.16-1.61.3-2.41.45l-.77.17a.43.43,0,0,0-.34.34c-.11.54-.22,1.08-.32,1.62s-.22,1.18-.34,1.77a.51.51,0,0,1-.06.21.61.61,0,0,1-.12.16s-.13,0-.18-.09l-.19-.31-1.55-2.59a3.22,3.22,0,0,0-.24-.36.38.38,0,0,0-.3-.17,6.89,6.89,0,0,0-.79,0l-1.08.09-1,.08L46,54.28c-.08,0-.16,0-.17-.11a.34.34,0,0,1,.06-.2,5.14,5.14,0,0,1,.4-.41l1.78-1.79a3,3,0,0,1,.25-.25.7.7,0,0,0,.17-1c-.45-.93-.86-1.88-1.28-2.82a1.94,1.94,0,0,1-.27-.81Zm6.94.51h0v-.65s-.06-.08-.1-.09a.15.15,0,0,0-.13,0,3.8,3.8,0,0,0-.37.33l-1.58,1.58a3.9,3.9,0,0,1-.38.33A.3.3,0,0,1,51,49a6.37,6.37,0,0,1-.61-.23l-2.22-1a2.86,2.86,0,0,0-.41-.15.16.16,0,0,0-.12.05.19.19,0,0,0,0,.13c0,.11.08.22.13.33.34.74.69,1.48,1,2.23A6.25,6.25,0,0,1,49,51a.35.35,0,0,1-.06.34c-.11.13-.22.25-.34.37L47.19,53.1l-.36.36a.66.66,0,0,0-.12.17.17.17,0,0,0,0,.14.16.16,0,0,0,.11.07,12.36,12.36,0,0,0,1.36,0c.69-.1,1.39-.06,2.08-.17a.39.39,0,0,1,.37.18,6.33,6.33,0,0,1,.36.54l1.09,1.86a2.16,2.16,0,0,0,.21.29.17.17,0,0,0,.13,0,.14.14,0,0,0,.11-.07c.06-.21.12-.42.16-.63.11-.56.2-1.13.31-1.7,0-.23.1-.47.17-.7a.42.42,0,0,1,.29-.29c.24-.06.47-.12.7-.16l1.63-.3.57-.13c.14,0,.21-.1.2-.17a.33.33,0,0,0-.17-.21L56.08,52l-1.92-1.13c-.5-.31-.56-.35-.49-.92a6.85,6.85,0,0,0,0-.79l.06-.72C53.8,48.11,53.84,47.78,53.87,47.44Z"/><path class="cls-1" d="M74.39,38.13H75.9l.51,0a.41.41,0,0,0,.32-.26c.09-.19.18-.39.26-.59.35-1,.7-1.89,1.06-2.84,0-.13.12-.26.18-.38a.12.12,0,0,1,.19,0,2.28,2.28,0,0,1,.2.38l1,2.76c.09.25.2.49.31.73a.35.35,0,0,0,.28.2c.22,0,.43,0,.65,0h2.88a2.81,2.81,0,0,1,.5,0s.06.06.08.1a.07.07,0,0,1,0,.07l-.14.16c-1,.81-1.89,1.63-2.85,2.42a.82.82,0,0,0-.32.94c.26,1,.5,1.91.74,2.86,0,.21.09.42.13.63s-.1.14-.15.12a1.21,1.21,0,0,1-.2-.09l-1-.69-1.79-1.22a2,2,0,0,0-.25-.14.32.32,0,0,0-.34,0,4.94,4.94,0,0,0-.49.3c-.75.52-1.5,1-2.26,1.55a3.7,3.7,0,0,1-.43.25.15.15,0,0,1-.13,0,.17.17,0,0,1-.06-.12c0-.15,0-.29.08-.43.23-.93.47-1.86.7-2.79.2-.77.2-.78-.41-1.3L72.69,38.7a2.2,2.2,0,0,1-.3-.31.14.14,0,0,1,0-.13.16.16,0,0,1,.09-.09,3,3,0,0,1,.43,0Zm.71.31H73.8a1.11,1.11,0,0,0-.36,0s-.1.08-.13.14,0,.09,0,.13a1.07,1.07,0,0,0,.14.16l2.31,2L76,41a.46.46,0,0,1,.12.4L76,42c-.18.73-.37,1.45-.54,2.17,0,.12,0,.24,0,.35s.11.14.16.12a1.19,1.19,0,0,0,.26-.11l1-.7,1.32-.88a.38.38,0,0,1,.41,0l.36.23,1.79,1.23a4.41,4.41,0,0,0,.43.25.19.19,0,0,0,.13,0c.05,0,.1-.11.08-.18s0-.23-.08-.35c-.18-.7-.36-1.39-.53-2.09,0-.19-.09-.38-.13-.57a.39.39,0,0,1,.09-.33,4,4,0,0,1,.41-.41c.47-.41,1-.8,1.43-1.21.29-.25.57-.52.84-.78a.15.15,0,0,0,0-.13s-.06-.09-.1-.09a4.21,4.21,0,0,0-.5,0H80.11a.5.5,0,0,1-.48-.36l-.06-.13c-.13-.36-.27-.72-.41-1.08-.19-.52-.38-1-.58-1.55a1.17,1.17,0,0,0-.19-.3.12.12,0,0,0-.13,0,1.14,1.14,0,0,0-.18.3c-.31.81-.6,1.62-.91,2.43a4.69,4.69,0,0,1-.21.46.34.34,0,0,1-.28.19,3.13,3.13,0,0,1-.43,0C75.87,38.45,75.48,38.44,75.1,38.44Z"/><path class="cls-1" d="M110.8,83.3c0-.31,0-.6,0-.89a.1.1,0,0,1,.11-.08.07.07,0,0,1,.06,0l.24.52a2.48,2.48,0,0,0,.6.8,2.11,2.11,0,0,0,.94.51,1.31,1.31,0,0,0,1-.14.88.88,0,0,0,.27-1.4,2.56,2.56,0,0,0-.73-.58c-.26-.13-.52-.25-.77-.4a8.66,8.66,0,0,1-.86-.53,2.14,2.14,0,0,1-.65-.75,1.76,1.76,0,0,1,.5-2.2,1.86,1.86,0,0,1,1.06-.41,2.68,2.68,0,0,1,1.34.19l.2.08a.56.56,0,0,0,.61-.07.13.13,0,0,1,.21.1,7.49,7.49,0,0,1,0,1.57s-.06.06-.1.07,0,0-.06,0l-.12-.26c-.08-.15-.14-.31-.23-.45a1.88,1.88,0,0,0-1.13-.84,1.16,1.16,0,0,0-.84.06,1.21,1.21,0,0,0-.35.24.76.76,0,0,0,0,1,2,2,0,0,0,.45.36,9.25,9.25,0,0,0,.88.47,9.47,9.47,0,0,1,1.18.71,2.18,2.18,0,0,1,.45.46,1.85,1.85,0,0,1-.52,2.65,2.52,2.52,0,0,1-2.07.32l-.54-.18a.76.76,0,0,0-.76,0l-.13,0c-.06,0-.17,0-.17-.1C110.83,83.94,110.82,83.61,110.8,83.3Z"/><path class="cls-1" d="M120.87,84.38c-.47,0-2.27.05-2.88,0,0,0-.07,0-.14-.06a1.18,1.18,0,0,1,.19-.1.75.75,0,0,0,.53-.77,1.55,1.55,0,0,0,0-.22v-.72a1.69,1.69,0,0,0-.22-.9c-.17-.31-.33-.63-.5-.95l-.69-1.27L117,79a2.63,2.63,0,0,0-.82-1,.08.08,0,0,1,0-.07s0,0,0,0l.06,0c.46,0,2,0,2.45,0,.07.09,0,.1-.07.14-.21.15-.26.26-.18.48s.14.35.23.52l.84,1.52c.08.14.18.28.27.42a.2.2,0,0,0,.31,0l.13-.18c.27-.45.55-.9.81-1.36a7.67,7.67,0,0,0,.36-.7.52.52,0,0,0-.18-.7s0-.08-.06-.14a1.5,1.5,0,0,1,.29,0l1,0s.06,0,.06,0,0,.11,0,.13a3.49,3.49,0,0,0-.77.94l-1.32,2.23a1.43,1.43,0,0,0-.24.82c0,.48,0,1,0,1.44a.67.67,0,0,0,.56.73C120.79,84.27,120.88,84.27,120.87,84.38Z"/><path class="cls-1" d="M44.93,84.37l.46-.21a.64.64,0,0,0,.33-.45,1.52,1.52,0,0,0,0-.21c0-.46,0-.91,0-1.37a3,3,0,0,0-.47-1c-.38-.7-.76-1.39-1.16-2.08a2.7,2.7,0,0,0-.79-1l0-.05a.11.11,0,0,1,.07,0A15.55,15.55,0,0,1,46,78a1.58,1.58,0,0,1-.18.13.3.3,0,0,0-.16.36,2.68,2.68,0,0,0,.18.47q.51.94,1.05,1.89a.94.94,0,0,0,.23.26s.09,0,.13,0a.27.27,0,0,0,.11-.1q.57-.94,1.14-1.92a1.87,1.87,0,0,0,.15-.32.49.49,0,0,0-.18-.64s-.07-.08-.06-.11.06-.07.1-.07h1.15s.07,0,.1.08,0,0,0,.06a3,3,0,0,0-.81,1l-1.11,1.85-.25.44a1.23,1.23,0,0,0-.17.62c0,.53,0,1.05,0,1.58a.66.66,0,0,0,.53.68l.19.08,0,.06C47.66,84.43,45.68,84.42,44.93,84.37Z"/><path class="cls-1" d="M71.16,84.31l.31-.17a.35.35,0,0,0,.17-.37,3.59,3.59,0,0,0-.46-1A.4.4,0,0,0,71,82.6a.65.65,0,0,0-.2,0q-.8,0-1.59,0a.51.51,0,0,0-.5.34c-.07.18-.15.36-.21.54a.55.55,0,0,0,.25.68l.25.14a.06.06,0,0,1,0,.06s0,.05,0,.05a7,7,0,0,1-1.58,0l-.05,0s0-.12,0-.13a2.6,2.6,0,0,0,.89-1.2l1.52-3.42.65-1.44a.7.7,0,0,1,.13-.17s.16-.06.19,0a1.19,1.19,0,0,1,.16.23L72,80.71c.38.86.75,1.71,1.12,2.57a2.14,2.14,0,0,0,.67.92s0,.09,0,.13,0,0,0,0l-.07,0A17.89,17.89,0,0,1,71.16,84.31ZM70,82.25v0c.15,0,.29,0,.44,0a1.52,1.52,0,0,0,.21,0,.27.27,0,0,0,.2-.33,13.68,13.68,0,0,0-.66-1.52.18.18,0,0,0-.11-.08.19.19,0,0,0-.18.1,9.21,9.21,0,0,0-.66,1.51s0,0,0,.07a.25.25,0,0,0,.15.23Z"/><path class="cls-1" d="M107.34,84.37c0-.17.17-.17.25-.24a.36.36,0,0,0,.16-.37,2.63,2.63,0,0,0-.4-1,.48.48,0,0,0-.3-.19l-.14,0H105.4a.59.59,0,0,0-.56.37,1.7,1.7,0,0,0-.22.68.49.49,0,0,0,.25.49l.31.16s0,0,0,.06,0,.05,0,.05a7,7,0,0,1-1.58,0s-.06-.07-.08-.11,0,0,0-.06a2.38,2.38,0,0,0,.77-1c.32-.72.65-1.44,1-2.16.4-.9.8-1.79,1.21-2.69a1.26,1.26,0,0,1,.13-.26.32.32,0,0,1,.15-.13.16.16,0,0,1,.17.1c.06.11.12.21.17.32.59,1.36,1.19,2.73,1.79,4.09.12.28.26.56.39.85a2.36,2.36,0,0,0,.67.92s0,.09,0,.13l-.06,0-.22,0h-2.15A1.18,1.18,0,0,1,107.34,84.37Zm-1.23-2.13h.5c.41,0,.42-.23.33-.46-.17-.4-.34-.8-.52-1.19a1.23,1.23,0,0,0-.14-.25.16.16,0,0,0-.25,0,10.07,10.07,0,0,0-.71,1.57.25.25,0,0,0,.21.31Z"/><path class="cls-1" d="M93,84.35c.51-.32.59-.48.42-.91-.36-.91-.31-.9-1.3-.9-.36,0-.72,0-1.07,0a.46.46,0,0,0-.41.26,2.15,2.15,0,0,0-.27.73.49.49,0,0,0,.25.55c.1.06.21.11.31.18s0,0,0,.06a.07.07,0,0,1,0,0H89.36a.12.12,0,0,1-.1-.08.19.19,0,0,1,0-.12.12.12,0,0,1,0,0,2,2,0,0,0,.7-.89L91.48,80c.26-.57.5-1.14.76-1.71a1.92,1.92,0,0,1,.18-.31.17.17,0,0,1,.29,0s.05.08.07.13l1,2.23,1.17,2.7c0,.05,0,.09.07.13a2.3,2.3,0,0,0,.7,1s0,.09,0,.13,0,0-.06,0a1.52,1.52,0,0,1-.21,0H93.22A2.12,2.12,0,0,1,93,84.35Zm-1.1-2.1c.21,0,.4,0,.59-.06a.25.25,0,0,0,.22-.3,1.29,1.29,0,0,0-.06-.21c-.18-.44-.37-.88-.57-1.31a.29.29,0,0,0-.16-.12c-.07,0-.13,0-.16.11-.2.4-.39.81-.58,1.22,0,.09-.06.18-.09.27a.26.26,0,0,0,.19.33Z"/><path class="cls-1" d="M95.38,112.4h0Z"/><path class="cls-1" d="M46.93,46.93Z"/></g></g></svg>