<svg xmlns="http://www.w3.org/2000/svg" viewBox="0 0 360.05 359.96"><defs><style>.cls-1{fill:#be9a78;}</style></defs><title>hotel</title><g id="Layer_2" data-name="Layer 2"><g id="Layer_1-2" data-name="Layer 1"><path class="cls-1" d="M150,138c0-3.72,0-7.06,0-10.41,0-5.45,2.07-7.57,7.4-7.58q22.68,0,45.37,0c5.08,0,7.17,2.2,7.22,7.39,0,3.36,0,6.72,0,10.6,5.52,0,10.84,0,16.16,0,5.85,0,7.82,2,7.83,7.92,0,9.22,0,18.44,0,28.08h10.67c12.13,0,24.25,0,36.38,0,4.67,0,6.92,2.24,6.93,6.91q0,49.86,0,99.74a9.56,9.56,0,0,1-.15,1H276.09v-95.5H234.3V323.71h41.6V294.24h12v28.39l12.09-4.8c0-3.69,0-7.66,0-11.64.17-13.77,10.5-24.14,24.3-24.19,5.6,0,11.32-.27,16.79.71a23,23,0,0,1,18.83,22.6c.18,15.88.09,31.75.05,47.63,0,5.05-2.32,7-8,7H9.67C1.32,360,0,358.62,0,350.12q0-21.37,0-42.75C0,292.13,10.17,282,25.39,282c5.23,0,10.57-.23,15.67.7A23.3,23.3,0,0,1,60,305.26c.12,4.24,0,8.47,0,12.54l12,4.79V228.15H83.86v95.57h42V186.23H84.05v29.55H72.27c-.08-.95-.25-1.9-.25-2.85q0-15.75,0-31.49c0-5.38,2.1-7.46,7.51-7.47q21,0,42,0H126V150.18c0-1.75,0-3.5,0-5.25.1-4.69,2.23-6.9,6.88-7C138.4,137.91,143.9,138,150,138Zm71.72,209.86V150.15H210c0,3.65,0,7.12,0,10.59-.06,4.94-2.19,7.19-7,7.2q-23,.06-46.1,0c-4.62,0-6.78-2.3-6.85-7-.05-3.58,0-7.16,0-10.72H138.3V347.76H156v-4.23c0-12,0-24,0-36,0-5.45,2.06-7.57,7.39-7.58q16.68,0,33.35,0c5.1,0,7.22,2.19,7.24,7.37,0,12.12,0,24.24,0,36.35v4.13Zm126.25,0c0-14.47.14-28.55-.07-42.62-.08-6.14-5.25-11-11.43-11.19q-6.54-.25-13.09,0c-5.41.21-10.36,4.14-11,9.49-.59,4.87-.13,9.87-.13,14.68,15.51,4,23.19,14,24,29.64ZM48,318.13c0-4.54.22-8.9-.06-13.24A11.81,11.81,0,0,0,36.55,294c-3.74-.16-7.48-.05-11.23,0C16.94,294,12,298.83,12,307.15q0,18.71,0,37.41c0,1.07.13,2.14.2,3.11H23.86C25,331.44,32.15,322.59,48,318.13ZM197.87,132.25H162.2v23.48h35.67Zm-6.12,215.54V312.26H168.2v35.53Zm132.05,0c.4-7-2.57-12.85-8.4-15.73-6.83-3.37-13.82-3.36-20.28.93-5.12,3.4-7.36,8.44-7,14.8ZM72,347.82c.08-7.37-2.7-12.94-9-15.94-6.81-3.24-13.88-3.13-20.25,1.4-4.87,3.47-7,8.41-6.6,14.54Zm203.87-11.58H234.2v11.51h41.66ZM125.69,347.88V336.21H84.3v11.67Z"/><path class="cls-1" d="M212.84,115.44c-.81-.34-2.34-.86-3.75-1.6-8.74-4.57-17.49-9.12-26.15-13.83a5.43,5.43,0,0,0-5.86,0c-8.78,4.76-17.68,9.29-26.49,14-2.59,1.38-5.11,2.16-7.7.22s-2.71-4.42-2.16-7.39c1.85-10.07,3.58-20.16,5.11-30.28a6,6,0,0,0-1.57-4.44c-7-7.09-14.23-14-21.44-21-2.2-2.11-3.88-4.28-2.87-7.54s3.8-4,6.73-4.41c9.27-1.34,18.52-2.81,27.81-3.94,3.29-.4,5.3-1.5,6.76-4.68,4-8.72,8.47-17.24,12.66-25.89C175.2,2.08,176.81,0,180,0s4.81,2.09,6.1,4.73c4.37,9,8.92,17.86,13.19,26.89A5.47,5.47,0,0,0,204,35.1q14.1,1.89,28.18,4a15.78,15.78,0,0,1,5.35,1.45c3.59,2,3.74,6.53.39,9.85-7.2,7.11-14.42,14.21-21.78,21.15a5.88,5.88,0,0,0-1.94,6.2c1.91,9.92,3.49,19.91,5.17,29.88C220.15,112,217.58,115.44,212.84,115.44Zm-58.44-17c7.24-3.79,14-7.08,20.44-10.8,3.71-2.13,6.88-2,10.51,0,6.5,3.64,13.17,7,20.32,10.73-1.31-7.51-2.28-14.42-3.76-21.23-1.1-5-.18-8.72,3.82-12.28,5.26-4.7,9.87-10.12,14.86-15.33-6.38-1-12.85-2.42-19.38-2.78s-10.07-3.43-12.42-9.29S183.18,26,180,19.59c-3.56,7.22-7,13.58-9.86,20.17-1.95,4.46-5,6.34-9.7,6.81-7.09.71-14.12,2-20.73,3,5.41,5.71,10.66,11.39,16.08,16.91,2.28,2.32,3.36,4.65,2.7,8C157,82.19,155.82,90,154.4,98.46Z"/><path class="cls-1" d="M53.07,142.62c1.07-6.33,2.34-13.21,3.28-20.13A6.09,6.09,0,0,0,54.92,118c-4.3-4.53-8.85-8.82-13.36-13.14-2.08-2-3.66-4.09-2.72-7.23,1-3.35,3.7-4.12,6.65-4.54,5.93-.85,11.86-1.74,17.8-2.46a5.38,5.38,0,0,0,4.81-3.4c2.61-5.66,5.52-11.19,8.21-16.82C77.54,67.9,79.2,66,82.2,66s4.75,1.83,6,4.35c2.74,5.61,5.65,11.14,8.21,16.82,1.08,2.41,2.64,3.25,5.09,3.54,5.83.68,11.63,1.6,17.44,2.41,3,.41,5.69,1.21,6.77,4.44s-.75,5.45-2.9,7.53c-4.24,4.07-8.31,8.31-12.67,12.24a5.94,5.94,0,0,0-2,6.26c1.19,6.13,2.43,12.27,3.1,18.46a9.39,9.39,0,0,1-2.08,6.27c-1.74,2.12-4.45,1.76-6.88.47-5.84-3.1-11.65-6.29-17.6-9.16a6.16,6.16,0,0,0-4.73,0c-6.07,2.92-11.92,6.28-18,9.25C57.26,151.2,52.91,148.31,53.07,142.62Zm44.54-9.89c-.79-4.51-1.36-8.32-2.13-12.1a8.16,8.16,0,0,1,2.68-8.41c2.91-2.62,5.58-5.51,8.74-8.67-4.37-.62-8.06-1.24-11.78-1.65-3.53-.39-6-1.94-7.45-5.33-1.53-3.55-3.44-6.94-5.44-10.9-2.07,4.15-3.94,7.54-5.48,11.08-1.41,3.25-3.81,4.72-7.19,5.12-3.8.46-7.58,1.07-11.67,1.66,3,3.14,5.69,6.08,8.57,8.79A7.88,7.88,0,0,1,69.09,120c-.75,4-1.32,8-2.07,12.69,4.06-2.14,7.52-3.82,10.84-5.75a8.14,8.14,0,0,1,8.82,0C90,128.88,93.5,130.58,97.61,132.73Z"/><path class="cls-1" d="M307,142.73c.06,5.7-4.34,8.43-9.08,6.07-5.92-3-11.66-6.26-17.62-9.11a6.67,6.67,0,0,0-5.06.05c-5.75,2.72-11.34,5.78-16.94,8.79-2.51,1.34-5,1.83-7.36,0s-2.74-4.19-2.18-7c1.18-6,2.06-12.06,3.18-18.07a5.72,5.72,0,0,0-1.86-6,186,186,0,0,1-13.34-13.15,9.83,9.83,0,0,1-2.27-6.56c.21-2.9,2.92-4.08,5.73-4.48,6.05-.85,12.09-1.86,18.17-2.53a6.13,6.13,0,0,0,5.56-4c2.43-5.47,5.24-10.78,7.85-16.17,1.22-2.5,2.84-4.47,5.87-4.52,3.19-.06,4.89,1.93,6.17,4.61,2.69,5.62,5.35,11.28,8.38,16.72a7.12,7.12,0,0,0,4.38,3.16c5.88,1.12,11.85,1.76,17.79,2.61,2.92.41,5.69,1.06,6.79,4.37s-.61,5.47-2.78,7.56c-4.51,4.33-9,8.63-13.37,13.14a5.63,5.63,0,0,0-1.35,4.12C304.61,129.33,305.89,136.33,307,142.73Zm-29.2-57.08c-2,3.94-3.89,7.29-5.37,10.82s-4.09,5.07-7.76,5.46-7.27,1-11.21,1.63c3,3.11,5.56,6,8.39,8.59a8.47,8.47,0,0,1,2.68,8.76c-.8,3.74-1.32,7.53-2.05,11.82,3.94-2,7.45-3.69,10.76-5.65a8.31,8.31,0,0,1,9.15,0c3.28,1.88,6.71,3.52,10.66,5.57-.77-4.7-1.34-8.63-2.07-12.53a7.8,7.8,0,0,1,2.58-7.72c2.89-2.71,5.54-5.67,8.57-8.81-3.51-.54-6.76-1.32-10-1.5-4.63-.25-7.7-2.14-9.42-6.57C281.37,92.29,279.58,89.29,277.76,85.65Z"/><path class="cls-1" d="M32.44,143.29c1.67,1.47,3.78,2.66,4.93,4.46a69.06,69.06,0,0,1,5,10,5,5,0,0,0,4.74,3.44,52.39,52.39,0,0,1,10.71,1.63c2.11.65,4.68,2.38,5.38,4.25.63,1.67-.5,4.6-1.78,6.26-2.27,2.94-5.44,5.16-7.83,8a8,8,0,0,0-1.7,5.15c.23,3.59,1.51,7.13,1.59,10.71,0,2.22-.69,5.2-2.22,6.48-1.36,1.16-4.56,1.18-6.47.46-4.51-1.72-8.72-5.82-13.08-5.86-4.2,0-8.32,4.13-12.71,5.83-1.91.74-5.1.75-6.48-.39s-2.36-4.27-2.25-6.46c.21-4.58,2.73-9.57,1.51-13.54-1.16-3.8-5.81-6.57-9-9.71-2-2-3.43-4.07-2.51-7a5.91,5.91,0,0,1,6.28-4.38c10.12.4,16.41-4.09,19.32-13.9C27,145.16,29.22,144,32.44,143.29ZM31.81,164c-1.84,6.42-6.12,9-12.62,9.28,5.91,3.63,6.56,8.7,5,14.77,5.3-4.23,10.26-3.73,15.68-.06-2.53-6.25-.49-10.89,4.51-14.9C37.77,173.11,33.93,170,31.81,164Z"/><path class="cls-1" d="M343,205.15c-1.8-.88-4.62-1.78-6.86-3.46-5.53-4.17-10.74-4.1-16.16.07a11.57,11.57,0,0,1-4.95,2.55c-2.15.31-4.95.42-6.52-.71s-1.74-3.78-2.21-5.85a6,6,0,0,1,.53-3.29c3.28-8.2.6-14.33-6.39-19.08a13.39,13.39,0,0,1-2.41-2.35c-3.47-4-1.67-9.3,3.55-10.22,3.8-.68,7.64-1.23,11.49-1.61a4.82,4.82,0,0,0,4.45-3.26,59.78,59.78,0,0,1,5.07-10c1.18-1.74,3.59-3.74,5.37-3.68,2,.08,4.46,2,5.7,3.78,2.17,3.16,3.39,7,5.38,10.26a6.64,6.64,0,0,0,3.87,2.73c3.64.82,7.51.76,11.06,1.81,2.11.63,4.82,2.35,5.41,4.18s-.58,4.81-1.93,6.55c-2.34,3-5.53,5.4-8.13,8.27a5.51,5.51,0,0,0-1.32,3.84c.45,4.08,1.35,8.12,2,12.19S347.76,205.28,343,205.15Zm-6.36-16.38c-2.86-7-1.1-11.74,4.1-15.44-8.19-2.39-8.19-2.39-13.1-9.83-1.26,6.85-5.69,9.38-12.08,9.66,5.3,3.85,6.74,8.59,4.72,14.92C325.61,183.66,330.66,184.31,336.66,188.77Z"/><path class="cls-1" d="M246.18,215.7V204.15h17.54V215.7Z"/><path class="cls-1" d="M96.22,234.13h17.51v11.59H96.22Z"/><path class="cls-1" d="M246.19,245.75V234.23h17.57v11.52Z"/><path class="cls-1" d="M96.19,264.1h17.57v11.65H96.19Z"/><path class="cls-1" d="M263.82,264.2v11.58H246.29V264.2Z"/><path class="cls-1" d="M113.73,215.81H96.22V204.14h17.51Z"/><path class="cls-1" d="M113.86,294.14v11.57H96.22V294.14Z"/><path class="cls-1" d="M263.79,305.77H246.3V294.21h17.49Z"/><path class="cls-1" d="M174.29,204.11H185.8v11.67H174.29Z"/><path class="cls-1" d="M198.17,215.69V204.16H209.7v11.53Z"/><path class="cls-1" d="M161.74,215.8H150.21V204.26h11.53Z"/><path class="cls-1" d="M174.08,239.72V228.26h11.65v11.46Z"/><path class="cls-1" d="M209.86,228.14v11.57H198.22V228.14Z"/><path class="cls-1" d="M150.21,252.13h11.53v11.59H150.21Z"/><path class="cls-1" d="M185.77,263.88H174.31V252.23h11.46Z"/><path class="cls-1" d="M209.73,263.81H198.22V252.14h11.51Z"/><path class="cls-1" d="M150.19,287.71V276.14h11.53v11.57Z"/><path class="cls-1" d="M174.29,276.11H185.8v11.67H174.29Z"/><path class="cls-1" d="M209.76,287.78H198.19V276.24h11.57Z"/><path class="cls-1" d="M209.74,191.8H198.21V180.26h11.53Z"/><path class="cls-1" d="M185.81,191.79H174.27v-11.6h11.54Z"/><path class="cls-1" d="M150.22,180.13h11.51v11.59H150.22Z"/><path class="cls-1" d="M150.19,239.75V228.23h11.57v11.52Z"/></g></g></svg>