<svg xmlns="http://www.w3.org/2000/svg" viewBox="0 0 409.01 344.93"><defs><style>.cls-1{fill:#be9a78;}</style></defs><title>parking</title><g id="Layer_2" data-name="Layer 2"><g id="Layer_1-2" data-name="Layer 1"><path class="cls-1" d="M0,226.78a77.72,77.72,0,0,1,3.66-8.71C8,210.4,14.81,206,23.38,204.56A85.9,85.9,0,0,0,69.92,181c17.56-16.86,38.9-24.36,63.07-24.36q33.13,0,66.26,0a91.92,91.92,0,0,1,52.92,16.16c15.63,10.58,31.34,21.06,47.25,31.21,7.55,4.82,16.16,7.24,25.29,8.4v-70h-4.48c-12.51,0-25,.05-37.52,0-10.83,0-16.42-5.64-16.51-16.52-.07-9.31,0-18.62,0-27.94a19.1,19.1,0,0,1,.09-2.39c.43-3.59,2.77-6,5.82-5.92,3.27,0,5.69,2.55,5.73,6.41.1,9.71,0,19.43,0,29.14,0,5.23.46,5.69,5.73,5.69H391.37c5.2,0,5.6-.43,5.61-5.76V17.34c0-5.3-.34-5.64-5.66-5.64H283.55c-5.27,0-5.67.43-5.68,5.69q0,18.77,0,37.52a15.79,15.79,0,0,1-.18,3.58c-.68,2.89-2.45,4.71-5.58,4.71s-5.5-1.59-5.51-4.61c-.1-16-.35-31.91.41-47.83C267.3,4.37,274.18.08,281.39,0,295.23,0,309.06,0,322.9,0Q357.43,0,392,0c11,0,16.78,5.74,16.79,16.68q0,54.49,0,109c0,11.08-5.6,16.69-16.69,16.74-10.65.05-21.29,0-31.94,0h-4.57v76.26c5.28,1.09,10.58,2.21,15.89,3.29,21.19,4.3,39.09,26.21,37.47,47.33-.62,8.2,0,16.49-.11,24.74-.12,13.33-8.79,22.79-22.07,22.63-7.22-.08-11,1.55-14.53,8.59-6.91,13.69-19.52,20.22-34.85,19.46-16.14-.79-27.79-9.06-34-24.13-1.26-3-2.74-3.76-5.79-3.76q-92.4.14-184.81,0c-3.07,0-4.58.72-5.75,3.81-5.68,15-21.2,25.06-36.87,24.25-17.29-.9-31.38-11.83-35.8-28a6.41,6.41,0,0,0-4.15-4.76c-5.41-2.2-10.62-4.92-16.06-7-7-2.7-12-7.12-14.06-14.48Zm377.87,78.34c2.82,0,5.33,0,7.85,0,7.39-.07,11.29-3.87,11.35-11.27.08-8.78-.5-17.6.15-26.33,1-13.82-12.33-29.91-24.59-32.86-13.42-3.24-26.9-6.47-40.52-8.53a123.83,123.83,0,0,1-56.49-23.24c-9.28-6.9-19.22-12.89-28.69-19.53a80.66,80.66,0,0,0-48.65-15c-21,.26-42,.39-63.05,0-23.64-.48-43.62,7.37-60.54,23.84a100.64,100.64,0,0,1-15.85,12c-10.46,6.71-22.35,9.62-34.37,12.14-8.06,1.7-12.62,7.07-12.69,15.11-.16,18.5-.11,37,0,55.48,0,1.67.78,4.21,2,4.85,6.15,3.24,12.56,6,19,9,5.4-24,23-32.73,38.75-32.94a36.47,36.47,0,0,1,22.36,7.33c10.06,7.36,15,17.57,16.05,29.77H300.1c2.64-26.27,23-37.44,39.71-37.16C356.21,268,375.39,279.69,377.87,305.12ZM71.19,333.21A26.88,26.88,0,1,0,44.3,306.39,26.87,26.87,0,0,0,71.19,333.21Zm267.67,0a26.89,26.89,0,1,0-26.71-27.31A26.69,26.69,0,0,0,338.86,333.22ZM336.5,142.63v66.19c0,6.45,0,6.45,6.78,7.21v-73.4Z"/><path class="cls-1" d="M163.36,29.32c26.86.24,50.08,9.55,69.53,28.14,3.09,3,3.56,6.18,1.36,8.78s-6,2.76-9.14-.22C213,54.51,199,46.44,182.5,43.06q-43.21-8.88-77,19.66c-1.42,1.21-2.72,2.57-4.17,3.73-3,2.43-6.36,2.36-8.56-.09s-2.27-6,.86-8.44c7.62-6,15.11-12.28,23.45-17.06C131.25,32.73,147,29.27,163.36,29.32Z"/><path class="cls-1" d="M329.78,78.36c0,7.75,0,14.51,0,21.27,0,4.34-1.89,6-6.48,6s-6.35-1.67-6.36-6.11q0-30.09,0-60.2c0-4.76,1.09-6,5.81-6,7.44-.06,14.9-.14,22.32.24,11.19.57,18.38,8,18.95,19.16a39.78,39.78,0,0,1-.34,9.13c-1.83,9.87-8.56,15.81-18.7,16.47C340.09,78.62,335.18,78.36,329.78,78.36Zm.32-33.6V68.83c4.78-.28,9.26-.44,13.72-.82a7.05,7.05,0,0,0,6.64-6,29.36,29.36,0,0,0,.36-9.8c-.73-4.81-3.6-7.15-8.48-7.45C338.38,44.56,334.39,44.76,330.1,44.76Z"/><path class="cls-1" d="M212.34,86.75c-1.35,1.77-2.21,4-3.71,4.58a8.39,8.39,0,0,1-6.21-.4c-2.75-1.48-4.91-4-7.48-5.89a54.17,54.17,0,0,0-67.67,3.73c-.59.53-1.15,1.1-1.77,1.6-3.23,2.6-6.59,2.54-8.83-.13s-1.77-5.66,1-8.5c24.26-24.53,67.3-24.53,91.44.07C210.37,83.06,211.1,84.8,212.34,86.75Z"/><path class="cls-1" d="M163.28,96.66a33,33,0,0,1,21.79,8.41c3,2.7,3.68,6.09,1.59,8.73s-5.64,3-8.79.28c-6.28-5.36-13.29-7.13-21.09-4.51-2.69.9-5.11,2.73-7.47,4.4-3.63,2.57-6.94,2.58-9.14-.26s-1.48-5.81,1.7-8.67A32.91,32.91,0,0,1,163.28,96.66Z"/><path class="cls-1" d="M146.09,231.42V188.86c-20.86-1.71-40,1-56.21,15.85C82.11,211.85,73,217.46,64.58,224c-1.44,1.12-2.11,3.22-3.14,4.87,1.75.87,3.47,2.4,5.25,2.48,6.91.29,13.83.07,20.75.14,4.62,0,7,2.12,7,5.83-.06,3.56-2.37,5.59-6.75,5.64-7.58.07-15.17.12-22.75,0S52,238.58,50.13,231.79A14.31,14.31,0,0,1,57,215c10.51-6,19.48-13.75,28.53-21.63,11.68-10.16,25.57-15.9,41.12-16.11,25.8-.35,51.62-.18,77.42,0,13.85.08,26.26,5,37.68,12.5,15,9.9,29.88,19.89,44.85,29.8,4.54,3,7.64,6.88,8.51,12.39,1,6.13-2.39,10.51-8.49,11-.93.07-1.87.05-2.8.05H130.12a28.59,28.59,0,0,1-3.59-.12c-3.21-.41-5.12-2.27-5.16-5.52-.05-3.45,1.89-5.58,5.32-5.74,4.78-.23,9.57-.11,14.36-.13Zm12.26-43.13v42.87h124a25,25,0,0,0-2.19-1.92c-14.94-9.94-29.73-20.12-44.92-29.67a68.77,68.77,0,0,0-19-8.7C197.24,186,177.82,189.62,158.35,188.29Z"/><path class="cls-1" d="M163.37,263.48c-2.92,0-5.84.13-8.75,0-3.56-.21-6.07-2.63-5.91-5.74.17-3.36,2.14-5.58,5.47-5.72,6.08-.25,12.19-.29,18.27,0,3.74.16,5.74,2.61,5.66,5.89s-2.35,5.42-6,5.61C169.2,263.6,166.28,263.48,163.37,263.48Z"/><path class="cls-1" d="M88.79,306.41A17.66,17.66,0,0,1,71.38,324a17.88,17.88,0,0,1-17.82-17.75,17.7,17.7,0,0,1,17.93-17.53A17.47,17.47,0,0,1,88.79,306.41Zm-11.55-.06a6.28,6.28,0,0,0-6.19-6,6,6,0,0,0-5.69,6,5.86,5.86,0,0,0,6.08,5.91A6,6,0,0,0,77.24,306.35Z"/><path class="cls-1" d="M338.92,288.75a17.65,17.65,0,1,1-17.56,17.48A17.78,17.78,0,0,1,338.92,288.75Zm6,17.43a6.12,6.12,0,0,0-5.91-5.83,6.23,6.23,0,0,0-6,6.16,6,6,0,0,0,6.34,5.72A5.92,5.92,0,0,0,344.93,306.18Z"/></g></g></svg>