<svg xmlns="http://www.w3.org/2000/svg" viewBox="0 0 492.03 468.58"><defs><style>.cls-1{fill:#be9a78;}</style></defs><title>payment</title><g id="Layer_2" data-name="Layer 2"><g id="Layer_1-2" data-name="Layer 1"><path class="cls-1" d="M492,123.81c-1.4,6.7-2.42,13.51-4.27,20.08a113.32,113.32,0,0,1-109.89,82.73h-5.12v5.61q0,86.25,0,172.48c-.05,31.39-20.6,56.68-51.08,62.56-6.53,1.27-13.37,1.24-20.07,1.24q-118.66.12-237.33,0C27.74,468.53.07,440.86,0,404.45q0-15.85,0-31.71c0-7.16,2.58-9.77,9.88-9.8,16.17-.06,32.35,0,48.52,0h5.82c.11-1.91.28-3.58.29-5.26q.94-135,1.86-270c.07-10.71,2.17-12.79,13-12.79q93.91,0,187.84.08c3.75,0,5.44-1,6.94-4.61C292.19,26.92,335.62-1.27,382,0c55.71,1.58,102.67,44.41,109.1,99.49a21.38,21.38,0,0,0,.89,3.14ZM82.36,91.17c-.61,90.61-1.22,181-1.83,271.75H192.6c20.5,0,41,0,61.49,0,6.43,0,8.93,2.6,9,9.07.07,4,0,8,0,12,.14,9.6-.71,19.35.68,28.77,3.65,24.75,25.57,41.55,50.31,39.59,23.94-1.9,42.39-22,42.46-46.92.15-58.93,0-117.85.13-176.77,0-3.47-1.15-4.47-4.39-5.28-27.45-6.92-49.54-21.85-65.75-45.14-2-2.91-4.1-3.73-7.44-3.72-25.14.13-50.27.08-75.41.07a28.28,28.28,0,0,1-4.79-.2,7.95,7.95,0,0,1,.3-15.77,31,31,0,0,1,4.31-.12h71.66c-9.43-22-11.55-44.27-7.52-67.36ZM476,113.69c.27-53.36-43.06-97.22-96.29-97.47-54-.26-97.88,43-98.1,96.7a97.2,97.2,0,1,0,194.39.77ZM16,379c0,8.4,0,16.53,0,24.65.18,29,20,48.83,49,48.83q98.69,0,197.38,0h4.53c.09-.61.19-.83.13-.9-.76-.82-1.54-1.61-2.31-2.42-9.4-9.95-15.54-21.59-16.86-35.27-.83-8.73-.58-17.57-.78-26.36-.06-2.81,0-5.63,0-8.54Z"/><path class="cls-1" d="M253.22,298.07q24.75,0,49.49,0a24.7,24.7,0,0,1,5.24.34c3.92.88,6.14,3.52,6.22,7.48.09,4.23-2.34,6.87-6.34,7.92a17.06,17.06,0,0,1-4.3.22H202.64a17.43,17.43,0,0,1-3.83-.16c-4-.91-6.55-3.35-6.63-7.64s2.21-6.92,6.31-7.87a21.63,21.63,0,0,1,4.77-.3Q228.25,298.05,253.22,298.07Z"/><path class="cls-1" d="M253.09,228.44q25.7,0,51.39,0c6.25,0,9.85,3,9.74,8-.11,4.82-3.55,7.74-9.6,7.75q-51.39.06-102.79,0c-6.37,0-9.78-3-9.68-8.09s3.49-7.69,10-7.69Q227.63,228.42,253.09,228.44Z"/><path class="cls-1" d="M174.26,167c.05,13.57-11.25,24.7-25.22,24.84s-25.87-11.33-25.75-24.9S135,142.3,148.87,142.32,174.21,153.38,174.26,167Zm-25.52,8.77c5.24,0,9.6-3.81,9.68-8.57s-4.22-8.73-9.46-8.79-9.54,3.75-9.61,8.57S143.46,175.69,148.74,175.74Z"/><path class="cls-1" d="M174.26,236.11c.12,13.59-11.07,24.76-25.06,25S123.31,250,123.3,236.36c0-13.43,11.46-24.61,25.41-24.72S174.13,222.51,174.26,236.11ZM148.86,245c5.3,0,9.57-3.89,9.56-8.66s-4.43-8.71-9.59-8.7-9.48,3.91-9.48,8.73S143.53,245,148.86,245Z"/><path class="cls-1" d="M174.26,305.67c0,13.59-11.36,24.65-25.33,24.69s-25.83-11.4-25.63-25S135,280.94,149,281,174.28,292,174.26,305.67Zm-25.36,8.59c5.3,0,9.56-3.92,9.52-8.69s-4.52-8.71-9.63-8.69-9.46,4-9.44,8.8S143.58,314.29,148.9,314.26Z"/><path class="cls-1" d="M385.45,54.18c2.8,1.15,5.39,2,7.79,3.22,11.14,5.67,17.25,14.91,18.8,27.21.78,6.17-2.22,10.53-7.29,10.92-4.88.38-8-3-8.69-9.31-1-9.37-8.05-16.09-17.07-16.29a17.76,17.76,0,0,0-18.3,15.59c-1.54,10.6,6.84,19.5,18.85,20a33.46,33.46,0,0,1,31.87,27c3.28,16.83-5.76,32.68-22,38.52l-3.93,1.45c0,2.69.13,5.4,0,8.1-.28,4.84-3.43,7.84-8,7.77-4.33-.06-7.91-3-7.55-7.55.52-6.41-1.68-9.44-7.72-12.35-10.94-5.28-16.7-15-17.41-27.38-.33-5.78,2.28-9.25,7-9.67,5-.45,8.05,2.47,8.76,8.48,1.12,9.48,6.93,15.77,15.57,16.87a17.7,17.7,0,0,0,5.16-35c-3.78-.6-7.69-.65-11.38-1.58a33.14,33.14,0,0,1-25-29.45c-1-15.3,6.76-28.55,20.58-34.07,3.42-1.37,4.72-3,4.38-6.61a14.06,14.06,0,0,1,.85-6.54c1.49-3.48,4.61-4.83,8.31-4.2a7.13,7.13,0,0,1,6.38,6.78C385.65,48.74,385.45,51.47,385.45,54.18Z"/></g></g></svg>