<svg xmlns="http://www.w3.org/2000/svg" viewBox="0 0 362.18 383.27"><defs><style>.cls-1{fill:#be9a78;}</style></defs><title>pool</title><g id="Layer_2" data-name="Layer 2"><g id="Layer_1-2" data-name="Layer 1"><path class="cls-1" d="M164.62,383.27c-5.38-2.77-7.11-7.17-7-13.15.31-14.71.1-29.44.1-44.16v-4.69h-4.94q-60.63,0-121.26,0c-18.94,0-33.21-15.08-31.37-33.18,1.55-15.25,3.49-30.46,5.28-45.69q4.33-37,8.69-73.91,4.66-39.93,9.28-79.87c2.38-20.31,4.86-40.6,7.16-60.92C32.37,11.86,44.87.08,60.76.06q120.33-.12,240.65,0c15.89,0,28.35,11.78,30.19,27.63q6.9,59.63,14,119.23,1.74,14.85,3.36,29.73c.48,4.34-1.35,7.09-4.83,7.45-3.25.33-5.72-1.84-6.22-6-2.18-18.07-4.24-36.15-6.35-54.23l-9.39-80.23q-.86-7.24-1.74-14.48c-1.33-11.07-9-17.9-20.22-17.91q-65.88,0-131.74,0H63.28c-12.87,0-20.08,6.12-21.61,18.85-3.79,31.56-7.41,63.14-11.11,94.71Q24.74,174.39,18.89,224c-2.53,21.55-5.1,43.08-7.53,64.64C10,300.4,19,310,31.37,310q52.22.09,104.42,0h21.62V295.78H40.35c-10.31,0-14.94-5.47-13.72-15.68,3.66-30.69,7.18-61.41,10.8-92.11s7.28-61.4,10.92-92.1q3.46-29.34,6.91-58.68c.89-7.54,5.39-11.69,12.95-11.7q49.22-.06,98.42,0c4.34,0,6.94,2.17,6.94,5.61s-2.58,5.6-6.93,5.6q-47.52,0-95.06,0h-5C56.86,119.28,47.16,201.65,37.42,284.3H90.91c0-3.69-.25-7.4,0-11.07.58-7.05.34-14.43,2.44-21,6.89-21.68,22.23-34.49,44.77-36.92,21.46-2.32,38.29,6.67,50.23,24.67.35.52.63,1.08.95,1.61s.65,1,1.24,2c.78-1.28,1.38-2.29,2-3.3a52.66,52.66,0,0,1,97.72,27c.06,5.59,0,11.19,0,17.06h34.42C315,201.79,305.33,119.52,295.58,36.72H197.12a20.16,20.16,0,0,1-3.73-.11c-2.93-.55-4.69-2.39-4.75-5.39s1.67-4.9,4.55-5.57a16.45,16.45,0,0,1,3.72-.15h95.44c9.48,0,13.54,3.44,14.64,12.72q6.39,53.66,12.67,107.33,6.94,58.68,13.92,117.36c.76,6.43,1.56,12.87,2.26,19.31a11.89,11.89,0,0,1-12,13.54c-11,.1-21.92,0-33.18,0v14.07c1.1.07,2.18.19,3.26.2,12.1,0,24.2,0,36.3,0,13.82-.05,22.05-9.76,20.38-23.43-3.19-26.11-6.15-52.25-9.2-78.37a27.13,27.13,0,0,1-.2-3c0-3.33,1.87-5.7,4.84-6.06a5.46,5.46,0,0,1,6.13,4.77c.76,4.54,1.19,9.14,1.73,13.72q4.06,34.92,8.13,69.84c2,17.26-11.58,33.19-28.94,33.63-12.72.33-25.45.1-38.17.12h-4.55v4.28c0,15-.16,29.94.07,44.91.1,6.05-1.87,10.37-7.52,12.81H258.93c-4.53-2.21-7.4-5.64-7.32-10.79H196.32c-.09,5.48-2.93,8.89-7.75,10.79Zm-46.38-98.92c0-6-.15-11.85,0-17.67a25.32,25.32,0,0,1,32.59-23.43c11.17,3.34,18.09,13.14,18.1,25.88q0,49.19,0,98.38v4.29h15.77c.08-.71.18-1.19.18-1.67,0-34.79.31-69.58-.15-104.37-.38-28.74-31.12-47.84-57.4-36.21-19.77,8.75-30.15,31.75-24.63,54.8Zm94.16,0c0-6.17-.14-12,0-17.85a25.21,25.21,0,0,1,50.36-.56c.28,5.72.2,11.47.09,17.2a5.24,5.24,0,0,0,2.4,4.94c10.51,7.61,10.38,22.18,0,30a6.31,6.31,0,0,0-2.25,4.11,96.11,96.11,0,0,0,0,12.7,5.81,5.81,0,0,0,2.05,3.84c10.61,7.89,10.74,22.38.18,30.29-.87.64-1.62,1.45-3.12,2.82h17v-7.2c0-32.3.09-64.6,0-96.9a41.4,41.4,0,0,0-27.62-39.29c-16.22-5.81-33.76-.89-45.31,12.56-10.91,12.7-10.5,27.85-9.75,43.35Zm-16.1,25.69H252a27.21,27.21,0,0,0,3.73-.1,6.64,6.64,0,0,0,6.09-6.11,6.53,6.53,0,0,0-4.11-7.24,11.06,11.06,0,0,0-4.36-.78q-27.11-.07-54.2,0a24,24,0,0,0-2.8.33Zm.07,50.55a5,5,0,0,0,1.23.39q28.59,0,57.17,0a6.84,6.84,0,0,0,1.11-.11,6.94,6.94,0,0,0,6-6.66,6.7,6.7,0,0,0-5.08-7,14.78,14.78,0,0,0-4-.47q-26.52,0-53.06,0c-1.07,0-2.15.15-3.28.24Zm-66.89-76.28h28.09c0-6.3.43-12.41-.11-18.44a13.61,13.61,0,0,0-14.33-12.41,14.14,14.14,0,0,0-13.59,13.37C129.24,272.54,129.48,278.27,129.48,284.32Zm66.8,51h55.11V321.57H196.28Zm55.24-50.94c.08-1.14.17-1.88.17-2.61,0-5,.13-10-.08-14.92A13.71,13.71,0,0,0,239,253.52c-6.91-.65-13.87,3.82-14.8,10.82-.87,6.53-.19,13.27-.19,20Z"/><path class="cls-1" d="M237.07,173.14c-18.22,17.27-42,14-56-.28-7.69,7.66-17,12-27.95,12s-20.14-4.09-28-12c-5.37,5.27-11.46,9.39-18.85,10.83a61.2,61.2,0,0,1-13,1c-4.1-.1-6.2-2.71-5.88-6.2.29-3.3,2.59-5.13,6.67-4.87,9.62.62,17.51-2.67,24-9.8,4.42-4.85,9.81-4.41,14.85.89,9.94,10.46,25,12,36.27,3.65a32.19,32.19,0,0,0,3.88-3.51c5.68-5.85,10.43-5.83,16.17.16,10.09,10.5,25.77,11.65,36.91,2.64,1.55-1.25,2.86-2.78,4.28-4.17,4-3.93,9.53-4.18,13.28,0,6.76,7.47,14.91,10.92,25,10.18,3.67-.26,5.94,1.86,6.13,5.08s-1.83,5.68-5.74,6a37.81,37.81,0,0,1-28.81-9c-1-.79-1.87-1.64-2.81-2.46C237.35,173.14,237.19,173.16,237.07,173.14Z"/><path class="cls-1" d="M180.92,127.07C165,142.62,141.2,142.69,125.09,127c-.8.66-1.63,1.33-2.44,2a37.65,37.65,0,0,1-23.36,9.65c-4,.19-6.35-1.64-6.62-4.94s1.66-5.83,5.58-6.12c8.18-.61,14.64-4.14,20.1-10.17,4.07-4.49,9.71-3.94,14.33.91,8.44,8.84,19.78,11.8,30.28,7.24a36.58,36.58,0,0,0,10.28-7.18c5.44-5.16,10.4-5.41,15.49,0,11.75,12.36,29,12.41,40.64.12,5.17-5.44,10.36-5.51,15.38-.1s10.91,8.58,18.26,9.07a10.73,10.73,0,0,1,1.48.2c3.54.72,5.36,3,5,6.28-.35,3-2.6,4.88-6.06,4.77a37.59,37.59,0,0,1-23.77-9.58c-.75-.64-1.47-1.31-2.29-2C218.62,142.81,199.89,143,180.92,127.07Z"/><path class="cls-1" d="M237.15,80.65c-15.65,15.26-39.42,16-56.23-.08-7.63,7.53-16.79,11.76-27.66,11.8s-20.14-4-28.06-11.85l-3.4,2.83a35.74,35.74,0,0,1-16.6,8.11c-3.53.66-6.09-1-6.83-4.19a5.31,5.31,0,0,1,4.15-6.5,32.28,32.28,0,0,0,16-9.85c4-4.41,9.67-3.76,14.33,1.15,8.24,8.67,19.49,11.61,30,7.17a35.9,35.9,0,0,0,10.34-7.1c5.63-5.35,10.49-5.6,15.74-.06,11.52,12.17,28.91,12.22,40.4.13,5.45-5.74,10.06-5.33,16,.05,3.67,3.31,8.48,5.37,12.8,7.94a20.39,20.39,0,0,0,2.13.69c2.87,1.26,4.32,3.43,3.52,6.55s-3.2,5-6.16,4a112.8,112.8,0,0,1-14.65-6.23C240.84,84.22,239.21,82.33,237.15,80.65Z"/></g></g></svg>