<svg xmlns="http://www.w3.org/2000/svg" viewBox="0 0 408.8 408.63"><defs><style>.cls-1{fill:#be9a78;}</style></defs><title>rest</title><g id="Layer_2" data-name="Layer 2"><g id="Layer_1-2" data-name="Layer 1"><path class="cls-1" d="M0,408.63V395.09H67.68V293H.26V279.22h4q33.93,0,67.85,0c1.83,0,3.66.53,5.49.62a4.54,4.54,0,0,0,2.82-.56c5.25-4.23,10.39-8.58,16.25-13.45-2.11-.11-3.36-.23-4.61-.23-14.23,0-28.47,0-42.7,0-25.72-.1-44.89-16.52-48.91-41.85a31.94,31.94,0,0,1-.37-4.37c-.1-5.49,2.32-8.16,7.84-8.29,6.23-.14,12.47,0,19.2,0,.93-47.41,17-88.61,49.77-122.67S150,36.68,197.25,33.93V13.59H184.17V0h40.38V13.39h-13.1V33.91c47.31,2.73,87.79,20.5,120.58,54.6s48.71,75.1,49.65,122.55c6.25,0,12.21.09,18.17,0,4.1-.08,7.28,1.17,8.95,5.17v7.19a23.31,23.31,0,0,0-.72,2.24c-4.2,20.72-16.65,33.57-37,38.81-2.26.58-4.61.83-7.09,1.26.36.86.55,1.35.76,1.83,6.2,13.58,3.75,25-7.72,34.54-27,22.44-54.13,44.74-81.16,67.15-10.16,8.43-21.79,12.26-34.94,12.24q-77.22-.12-154.45,0H81.51c0,6.37-.18,12.21.07,18,.17,4.2-1.27,7.2-4.93,9.18Zm368.35-198c-3.12-63.2-30.2-112.26-85.47-142.46-58.12-31.76-116.79-28.36-171.49,9-46.3,31.61-68.72,77.31-70.75,133.48ZM81.85,367.81h5.44c51,0,101.9-.07,152.84.07a42.2,42.2,0,0,0,28.52-10.3c16.25-13.74,32.76-27.17,49.16-40.72,10.56-8.73,21.16-17.42,31.64-26.24,4.32-3.63,6.08-8.33,4.37-13.93-1.64-5.4-5.52-8.88-11-8.87a19.72,19.72,0,0,0-10.57,3.54c-24.71,17.33-49.16,35-73.85,52.39a17.83,17.83,0,0,1-9.52,3c-25.14.25-50.28.14-75.43.12a47,47,0,0,1-5.56-.35,20.23,20.23,0,0,1-.1-40.18c5.28-.52,10.62-.38,15.94-.42,10.37-.07,20.75,0,31.12-.1,4.67,0,7.75-2.72,9.34-6.87,1.45-3.83.6-7.81-2.59-10.13a16.59,16.59,0,0,0-9.08-3c-28.46-.22-56.93-.05-85.4-.19a23.58,23.58,0,0,0-16,5.9c-8.64,7.29-17.31,14.56-26.09,21.67a7.67,7.67,0,0,0-3.25,6.69c.13,21.15.07,42.31.07,63.46ZM394.1,224.91H14.68c.11.73.16,1.24.28,1.73,3.73,15.15,17.35,25.21,34.5,25.32,15,.09,30.06,0,45.09,0q59.65-.06,119.31-.15c48.81,0,97.63.24,146.44.07C377.59,251.84,390.94,240.89,394.1,224.91ZM237.59,265.79c0,5.66.91,11.07-.19,16-2.5,11.28-11.9,17.67-24.7,17.74-13.7.09-27.4,0-41.1.07-5.12,0-8,2.8-7.94,7s2.9,6.39,7.89,6.64c.66,0,1.33,0,2,0,24.2,0,48.41.05,72.62-.09a12.15,12.15,0,0,0,6.54-2.05c20.1-14.17,40.09-28.51,60.1-42.81.9-.65,1.76-1.37,3.23-2.52Z"/><path class="cls-1" d="M54.4,361a20.51,20.51,0,0,1-20.24,20.43,20.73,20.73,0,0,1-20.53-20.25,20.46,20.46,0,0,1,20.54-20.52A20.24,20.24,0,0,1,54.4,361Zm-20.25,6.76a6.84,6.84,0,0,0,6.59-7.06,6.67,6.67,0,0,0-6.77-6.4,6.84,6.84,0,0,0-6.67,7A7.07,7.07,0,0,0,34.15,367.71Z"/><path class="cls-1" d="M111.19,111.75l-9.32-9.86c29.07-26.61,62.94-40,102.29-40.68V74.76C168.56,75.37,137.66,87.64,111.19,111.75Z"/><path class="cls-1" d="M102.38,120.56l-12,15.51-11.29-7.53,13.07-17.06Z"/></g></g></svg>