<svg xmlns="http://www.w3.org/2000/svg" viewBox="0 0 383.33 323.33"><defs><style>.cls-1{fill:#be9a78;}</style></defs><title>tv</title><g id="Layer_2" data-name="Layer 2"><g id="Layer_1-2" data-name="Layer 1"><path class="cls-1" d="M0,32.23c.75-2.47,1.39-5,2.26-7.41A37.24,37.24,0,0,1,36.46.1C46.32-.08,56.17,0,66,0q139.22,0,278.44,0c18.62,0,33.44,11.23,37.61,28.65a50.17,50.17,0,0,1,1.12,11.49c.07,57.26,0,114.52.12,171.78,0,10.83-1.76,20.83-9.07,29.39a60.8,60.8,0,0,1,8.59,23c3.93,27-16,54.09-43.12,58.27-22.49,3.46-43-6.25-54.51-25.9q-11.5-19.69-22.76-39.53a4.59,4.59,0,0,0-4.65-2.72c-11.44.13-22.89,0-34.54,0V298h3.51c8.36,0,16.72,0,25.07,0,5.17,0,8.54,2.94,8.62,7.33s-3.31,7.61-8.36,7.61q-60.43,0-120.88,0c-5.1,0-8.46-3.11-8.43-7.52s3.36-7.4,8.51-7.42c9.46,0,18.93,0,28.64,0V254.54h-4.45q-57.26,0-114.52,0c-22,0-35.11-10.24-40.51-31.62-.06-.21-.3-.38-.46-.56ZM365.54,226.31l1.41-.15c.44-3.77,1.26-7.53,1.27-11.29q.12-87.57,0-175.15c0-15.5-9.17-24.71-24.61-24.71H39.75C24.06,15,15,24.14,15,39.91V214.32c0,16.26,9,25.25,25.19,25.25q103.68,0,207.35,0h4.67c-2.61-4.51-5.1-8.36-7.1-12.45-1.5-3.07-3.42-4.11-6.9-4.1q-97.69.18-195.37.08c-7.4,0-9.87-2.47-9.87-9.86q0-85.91,0-171.79c0-7.62,2.39-10,10.13-10H155.35a27,27,0,0,1,3.37.08,7.44,7.44,0,0,1,.12,14.79,31.26,31.26,0,0,1-4.11.1H48.17V207.86H233.73c-.63-1.23-1.09-2.09-1.52-3-3.52-7.09-1.51-14.93,5.27-18.89q33.11-19.31,66.37-38.33c7-4,15-1.71,19.21,5.14,3.51,5.74,6.75,11.64,10.14,17.46.5.87,1.13,1.67,1.86,2.73V46.45H228.52a31.26,31.26,0,0,1-4.11-.1,7.44,7.44,0,0,1,.09-14.79,31,31,0,0,1,3.74-.08H339.77c8.39,0,10.54,2.18,10.54,10.7q0,77.1,0,154.2c0,1.46-.1,3.16.56,4.35C355.67,209.31,360.63,217.79,365.54,226.31ZM245.76,198.48,260.46,224q18.69,32.37,37.38,64.72c7,12.17,17.5,19.08,31.51,19.63,14.34.56,25.8-5.52,33.27-17.76,7.89-12.91,7.55-26.24,0-39.35q-25.22-43.69-50.45-87.38c-.52-.9-1.17-1.74-1.79-2.64Zm-70.47,99.18h32.6V254.78h-32.6Z"/><path class="cls-1" d="M265.54,86.31c5.29.73,10.62,1.25,15.86,2.25,6,1.14,8.67,4.67,7.66,9.41s-5,6.53-10.94,5.22c-17.51-3.86-33.4-.26-47.51,10.69a54,54,0,0,0-18.92,28c-1.5,5.06-4.76,7.45-8.84,6.69-4.88-.91-7.19-5.2-5.59-10.66a69.33,69.33,0,0,1,26.94-38A73.07,73.07,0,0,1,265.54,86.31Z"/><path class="cls-1" d="M265.68,121.12c2.59.37,5.2.59,7.75,1.13,5.06,1.06,7.6,4.59,6.7,9-.87,4.28-4.41,6.32-9.41,5.73-2.94-.35-6-.81-8.87-.32-8.11,1.4-13.69,6.15-16.59,13.93-.3.81-.53,1.66-.89,2.45a7.42,7.42,0,0,1-14-4.8C233.83,132.93,249.08,121.29,265.68,121.12Z"/><path class="cls-1" d="M199.08,39.05a7.46,7.46,0,1,1-7.28-7.54A7.57,7.57,0,0,1,199.08,39.05Z"/><path class="cls-1" d="M330.9,248.53a22.45,22.45,0,1,1-22.47,22.23A22.42,22.42,0,0,1,330.9,248.53Zm.05,29.91a7.46,7.46,0,1,0-7.54-7.22A7.56,7.56,0,0,0,331,278.44Z"/><path class="cls-1" d="M276.62,214.79a7.5,7.5,0,0,1-7.18-7.61,7.36,7.36,0,0,1,7.81-7.29,7.55,7.55,0,0,1,7.08,7.73A7.71,7.71,0,0,1,276.62,214.79Z"/><path class="cls-1" d="M310.15,192.41a7.41,7.41,0,0,1-7.35,7.41,7.49,7.49,0,0,1-7.42-7.73,7.39,7.39,0,0,1,14.77.32Z"/><path class="cls-1" d="M291.8,240.65a7.4,7.4,0,0,1-.15-14.8,7.4,7.4,0,1,1,.15,14.8Z"/><path class="cls-1" d="M317.76,225.7a7.38,7.38,0,0,1-7.42-7.32,7.4,7.4,0,1,1,7.42,7.32Z"/></g></g></svg>